<?xml version="1.0" encoding="UTF-8" standalone="no"?>
<!-- Created with Inkscape (http://www.inkscape.org/) -->

<svg
   xmlns:dc="http://purl.org/dc/elements/1.1/"
   xmlns:cc="http://creativecommons.org/ns#"
   xmlns:rdf="http://www.w3.org/1999/02/22-rdf-syntax-ns#"
   xmlns:svg="http://www.w3.org/2000/svg"
   xmlns="http://www.w3.org/2000/svg"
   xmlns:sodipodi="http://sodipodi.sourceforge.net/DTD/sodipodi-0.dtd"
   xmlns:inkscape="http://www.inkscape.org/namespaces/inkscape"
   width="84.203865mm"
   height="27.009737mm"
   viewBox="0 0 298.36015 95.703791"
   id="svg2"
   version="1.1"
   inkscape:version="0.91 r13725"
   sodipodi:docname="GemHero.svg">
  <defs
     id="defs4" />
  <sodipodi:namedview
     id="base"
     pagecolor="#ffffff"
     bordercolor="#666666"
     borderopacity="1.0"
     inkscape:pageopacity="0.0"
     inkscape:pageshadow="2"
     inkscape:zoom="2"
     inkscape:cx="82.492402"
     inkscape:cy="100.18616"
     inkscape:document-units="px"
     inkscape:current-layer="g4289"
     showgrid="false"
     showguides="false"
     inkscape:window-width="1920"
     inkscape:window-height="1091"
     inkscape:window-x="0"
     inkscape:window-y="1"
     inkscape:window-maximized="1"
     fit-margin-top="0.2"
     fit-margin-left="0.2"
     fit-margin-right="0.2"
     fit-margin-bottom="0.2" />
  <metadata
     id="metadata7">
    <rdf:RDF>
      <cc:Work
         rdf:about="">
        <dc:format>image/svg+xml</dc:format>
        <dc:type
           rdf:resource="http://purl.org/dc/dcmitype/StillImage" />
        <dc:title></dc:title>
      </cc:Work>
    </rdf:RDF>
  </metadata>
  <g
     style="display:inline"
     id="g4289"
     inkscape:groupmode="layer"
     inkscape:label="Black"
     transform="translate(-63.392063,-30.224812)">
    <flowRoot
       style="font-style:normal;font-variant:normal;font-weight:normal;font-stretch:normal;font-size:40px;line-height:125%;font-family:'Nightmare Hero';-inkscape-font-specification:'Nightmare Hero';letter-spacing:0px;word-spacing:0px;fill:#000000;fill-opacity:1;stroke:none;stroke-width:1px;stroke-linecap:butt;stroke-linejoin:miter;stroke-opacity:1"
       id="flowRoot4291"
       xml:space="preserve"><flowRegion
         id="flowRegion4293"><rect
           style="font-style:normal;font-variant:normal;font-weight:normal;font-stretch:normal;font-family:'Nightmare Hero';-inkscape-font-specification:'Nightmare Hero'"
           y="34.505062"
           x="22.857143"
           height="192.14285"
           width="456.42856"
           id="rect4295" /></flowRegion><flowPara
         id="flowPara4297" /></flowRoot>    <g
       id="g4311"
       style="font-style:normal;font-weight:normal;font-size:40px;line-height:125%;font-family:sans-serif;letter-spacing:0px;word-spacing:0px;fill:#000000;fill-opacity:1;stroke:none;stroke-width:1px;stroke-linecap:butt;stroke-linejoin:miter;stroke-opacity:1"
       transform="translate(51.29799,-43.131602)">
      <path
         style="font-size:125px;letter-spacing:-2px"
         d="m 189.77539,74.066406 c -1.16341,-0.04145 -2.12906,0.890543 -2.12891,2.054688 l 0,0.175781 c -3.5e-4,0.445898 0.14429,0.87982 0.41211,1.236328 1.68743,2.241117 2.39551,4.202405 2.39844,5.958985 l -0.17187,3.605468 c -10e-4,0.03253 -0.002,0.06509 -0.002,0.09766 l 0,3.076172 c -0.62984,-1.178977 -2.19962,-1.452776 -3.1914,-0.55664 l -22.32422,20.214842 c -0.43023,0.38964 -0.6757,0.94299 -0.67578,1.52343 0,0.90333 0.62082,1.60839 1.01758,1.87891 0.39675,0.27052 0.69348,0.35533 0.98046,0.43359 0.42244,0.11522 0.88612,0.15066 1.36133,0.19532 1.14983,0.44851 1.38672,0.76703 1.38672,2.0625 l 0,24.60937 c 0,6.03058 -2.59053,10.24886 -8.43555,13.4961 -0.65229,0.36273 -1.05673,1.05051 -1.05664,1.79687 l 0,0.35156 c 6.2e-4,1.28232 1.16224,2.25112 2.42383,2.02149 l 27.94922,-5.09766 c 0.97611,-0.17868 1.68524,-1.02915 1.68555,-2.02148 l 0,-0.17578 c 2.2e-4,-0.66434 -0.32062,-1.28784 -0.86133,-1.67383 -1.38037,-0.98351 -1.99549,-2.12121 -2.31641,-3.45313 0.2451,0.0993 0.50705,0.15035 0.77149,0.15039 l 23.90625,0 c 1.13453,-5.7e-4 2.05411,-0.92014 2.05468,-2.05468 l 0,-0.35157 c 2e-4,-0.83414 -0.50368,-1.58571 -1.27539,-1.90234 -0.33164,-0.13606 -0.54381,-0.29084 -0.84179,-0.43164 3.96773,0.77313 5.96656,3.61118 10.06836,9.30078 0.38647,0.53607 1.0071,0.85366 1.66796,0.85352 l 0.48829,0 c 0.98026,-10e-4 1.82319,-0.69467 2.01367,-1.65625 1.98516,-3.69756 4.81314,-6.18123 8.7539,-7.65821 1.08306,-0.0298 2.04902,-0.0711 2.79493,-0.21093 0.43733,-0.082 0.83116,-0.16696 1.31836,-0.42579 0.48719,-0.25882 1.33398,-1.00477 1.33398,-2.11328 l 0.24414,-13.63476 c -2.97133,-5.89585 -2.10666,1.73443 -0.7363,-4.32413 l -0.24023,-3.59375 0,-4.32617 0,-10.25391 c -8.1e-4,-0.97845 -0.69114,-1.82074 -1.65039,-2.01367 -0.26866,-0.0978 -0.50877,-0.20529 -1,-0.28122 l -3.49414,-0.23242 c -3.26238,-0.59557 -5.56803,-1.537166 -6.9043,-2.593749 -1.34591,-1.064209 -1.84375,-2.092927 -1.84375,-3.667969 -5.7e-4,-1.134538 -0.92015,-2.05412 -2.05469,-2.054687 l -0.48828,0 c -0.92638,2.47e-4 -1.73815,0.620074 -1.98242,1.513671 l -0.60742,2.22461 c -2.01894,2.695803 -4.08903,4.251324 -6.22071,4.859374 -1.96716,0.2311 -3.54537,0.44405 -4.63867,0.65429 -0.57888,0.11133 -1.03222,0.21406 -1.47461,0.36719 -0.22119,0.0766 -0.43666,0.1506 -0.75,0.35547 -0.31333,0.20487 -1.09949,0.69375 -1.02929,1.8457 2.52917,53.27781 1.69336,24.14128 1.69336,-10.87304 0,-3.182017 1.3719,-5.474569 4.81054,-7.558594 0.61468,-0.372533 0.99016,-1.039053 0.99024,-1.757812 l 0,-0.175781 c 4.2e-4,-0.87406 -0.55192,-1.65281 -1.37696,-1.941407 L 190.3789,74.179812 c -0.19437,-0.06776 -0.39781,-0.10595 -0.60352,-0.113282 z M 39.115234,82.546875 c -0.861197,-5.01e-4 -1.631424,0.535852 -1.929687,1.34375 -1.421089,3.857243 -3.525913,5.335937 -7.5625,5.335937 l -10.019531,0 c -0.544964,-1.5e-5 -1.067634,0.216359 -1.453125,0.601563 l -0.351563,0.351563 c -0.385203,0.385491 -0.601577,0.908161 -0.601562,1.453124 l 0,11.374998 -0.169922,3.38867 c -0.22094,2.39138 -0.671505,4.18478 -1.210938,5.3086 -0.540419,1.12587 -1.043663,1.52435 -1.59375,1.70312 -0.846779,0.2754 -1.419988,1.06464 -1.419922,1.95508 l 0,0.52734 c -1.62e-4,0.65151 0.308521,1.26453 0.832032,1.65235 2.426712,1.79756 3.914062,5.47488 3.914062,11.70703 l 0,19.99609 c -1.6e-5,0.54497 0.216358,1.06764 0.601563,1.45313 l 0.175781,0.17578 c 0.819224,0.81823 2.152261,0.79878 2.947266,-0.043 3.490653,-3.69751 8.681065,-5.63462 16.0625,-5.63867 l 2.859374,0.0957 c -1.376127,7.71553 -3.993915,14.23876 -7.849609,19.63672 -0.24909,0.34879 -0.382934,0.76671 -0.382812,1.19531 l 0,0.17579 c 5.73e-4,1.13453 0.920153,2.05411 2.054687,2.05468 l 0.175781,0 c 0.424418,3.8e-4 0.83855,-0.13061 1.185547,-0.375 12.238328,-8.63424 19.49065,-17.73327 21.201172,-27.29101 0.304231,0.16866 0.646285,0.25737 0.994141,0.25781 4.667311,0 9.364071,2.93501 14.201172,9.64453 0.386476,0.53607 1.007107,0.85366 1.667968,0.85352 l 0.488282,0 c 0.980261,-0.001 1.823187,-0.69467 2.013671,-1.65625 1.985166,-3.69756 4.813143,-6.18123 8.753907,-7.65821 0.676596,-0.0186 -0.784931,-0.0746 -0.253907,-0.13086 -0.293884,0.36467 -0.454434,0.81876 -0.455078,1.28711 l 0,0.48828 c 5.67e-4,1.13454 0.92015,2.05412 2.054688,2.05469 l 20.751958,0 c 1.13454,-5.7e-4 2.05411,-0.92015 2.05468,-2.05469 l 0,-0.0801 c 0.32342,0.97779 0.72337,1.86584 1.22071,2.64257 0.16969,0.47516 0.40547,0.89767 0.68359,1.17579 0.43621,0.43621 0.89568,0.70903 1.40234,0.95898 1.01333,0.49991 2.25761,0.88417 3.86328,1.26953 3.21135,0.77072 7.83439,1.48313 13.98047,2.17969 1.21932,0.13812 2.2873,-0.81585 2.28711,-2.04297 l 0,-0.24414 c -0.001,-0.45149 -0.15065,-0.89008 -0.42578,-1.24805 0.9917,0.50046 2.14641,0.90264 3.66406,1.28711 3.22652,0.81739 7.8553,1.55099 14.00586,2.24805 0.0772,0.008 0.15479,0.0122 0.23242,0.0117 l 0.24415,0 c 1.13454,-5.7e-4 2.05411,-0.92015 2.05468,-2.05469 l 0,-0.24414 c 9e-5,-0.53543 -0.20873,-1.04976 -0.58203,-1.43359 -4.04825,-4.15669 -6.2539,-10.88321 -6.2539,-20.53907 l 0,-6.59179 c 0,-4.50025 -2.217,-8.5367 -6.15821,-11.62696 -0.0116,-0.009 -0.0234,-0.0183 -0.0352,-0.0273 -0.57747,-0.4331 -1.0143,-0.59588 -1.74414,-0.91016 -0.72985,-0.31428 -1.66856,-0.68576 -2.8418,-1.125 -2.34649,-0.87847 -5.62078,-2.02702 -9.84375,-3.45507 -8.43088,-2.85103 -20.57968,-6.900597 -36.451173,-12.150396 -0.207959,-0.06861 -0.425545,-0.10356 -0.644531,-0.103515 l -0.488282,0 c -1.745767,5.8e-4 -2.696244,2.039507 -1.574218,3.376953 1.955236,2.326057 3.104805,5.883348 3.18164,10.916018 l 0.240235,27.95703 c -0.229912,0.83581 1.568868,1.13856 1.341797,1.83984 l 0.179687,-10.01562 c -3.452916,-6.23974 -1.383549,2.43192 -0.880172,-5.20801 l -0.09639,-2.70987 0,-4.32617 0,-10.25391 c -8.06e-4,-0.97845 -0.691143,-1.82075 -1.65039,-2.01367 -0.139576,-0.0932 -0.777586,-0.22198 -0.999997,-0.28123 l -3.494141,-0.23242 c -3.262378,-0.59557 -5.566077,-1.53717 -6.902343,-2.593753 -1.34591,-1.064209 -1.845704,-2.092927 -1.845704,-3.667969 -5.69e-4,-1.134537 -0.92015,-2.054118 -2.054687,-2.054687 l -0.488281,0 c -0.926382,2.46e-4 -1.738156,0.620073 -1.982422,1.513671 l -0.607422,2.22461 c -2.018929,2.6958 -4.089024,4.251328 -6.220703,4.859378 -1.967167,0.2311 -3.545373,0.44405 -4.638672,0.65429 -0.466101,0.0896 -0.824418,0.18593 -1.1875,0.29493 l 0,-2.052739 c 0,-0.398286 0.02782,-0.693876 0.05859,-0.892578 0.06948,-0.27527 0.136553,-0.542236 0.205078,-0.794922 l 0.002,-0.0059 c 0.577421,-1.895116 1.201989,-3.219143 1.671875,-3.865234 0.0059,-0.0078 0.01178,-0.01559 0.01758,-0.02344 0.463189,-0.656184 0.579605,-0.625 0.736328,-0.625 1.134537,-5.68e-4 2.05412,-0.920151 2.054688,-2.054688 l 0,-0.351562 c -5.68e-4,-1.134537 -0.920151,-2.05412 -2.054688,-2.054688 l -12.832031,0 c -1.727646,0 -3.810733,-1.456157 -6.111328,-5.61914 -0.362051,-0.65441 -1.050942,-1.060564 -1.798828,-1.060547 l -0.175782,0 z m 194.830076,9.914063 c -0.0973,-3.88e-4 -0.19459,0.0061 -0.29101,0.01953 l -1.70899,0.24414 c -1.01226,0.145281 -1.76381,1.012527 -1.76367,2.035157 l 0,0.488281 c -10e-6,0.843955 0.5158,1.602177 1.30078,1.912109 3.0672,1.20771 5.23963,2.602574 6.57227,4.035155 1.33263,1.43259 1.89258,2.83605 1.89258,4.55078 l 0,30.51758 c 0.052,1.3885 0.025,2.37032 1.5e-4,3.17383 0,0.5836 -0.12664,0.89875 -0.53711,1.33203 -0.41048,0.43328 -1.19954,0.93956 -2.45313,1.35742 -0.83855,0.28016 -1.40406,1.0651 -1.4043,1.94922 l 0,0.48828 c 5.7e-4,1.13454 0.92015,2.05412 2.05469,2.05469 l 10.25391,0 9.76562,0 c 1.13454,-5.7e-4 2.05412,-0.92015 2.05469,-2.05469 l 0,-0.73242 c 6e-5,-0.78748 -0.44974,-1.5058 -1.1582,-1.84961 -2.33404,-1.13269 -3.52793,-2.2463 -2.99219,-3.76562 l 0,-5.67188 6.62891,11.76758 c 1.60138,4.40465 4.26541,8.0427 7.93164,10.70508 0.0603,0.0437 0.12285,0.0841 0.1875,0.12109 7.6337,4.3621 14.98397,6.61719 22.01562,6.61719 1.13454,-5.7e-4 2.05412,-0.92015 2.05469,-2.05469 l 0,-0.48828 c 4e-5,-0.8836 -0.56456,-1.66838 -1.40234,-1.94922 -0.48211,-0.16146 -0.85606,-0.3609 -1.31836,-0.52929 0.007,-0.0123 0.0145,-0.0247 0.0215,-0.0371 3.25928,-5.67498 6.62625,-8.00196 10.42383,-8.00196 l 1.2207,0 c 0.54496,2e-5 1.06764,-0.21636 1.45313,-0.60156 l 0.48828,-0.48828 c 0.3852,-0.38549 0.60158,-0.90817 0.60156,-1.45313 l 0,-15.625 c 0,-0.19612 -0.007,-0.26199 0.32813,-0.57617 0.33512,-0.31418 1.06136,-0.75412 2.1914,-1.14258 1.54013,-0.52954 1.88223,-2.55442 0.60156,-3.56054 -2.0407,-1.60341 -2.63281,-2.84142 -2.63281,-3.50977 l 0,-13.67187 c -2e-5,-0.86836 -0.54566,-1.64306 -1.36328,-1.93555 l -6.48437,-2.31641 c -4.3544,-3.16177 -6.06836,-5.823145 -6.06836,-7.222654 -5.7e-4,-1.134538 -0.92015,-2.054121 -2.05469,-2.054688 l -0.48828,0 c -0.82916,2.09e-4 -1.57702,0.498526 -1.89649,1.263672 -1.75383,4.20918 -4.75517,6.06055 -10.31054,6.06055 l -0.48828,0 c -0.54496,-2e-5 -1.06764,0.21636 -1.45313,0.60156 l -0.48828,0.48828 c -0.3852,0.38549 -0.60158,0.90816 -0.60156,1.45313 l 0,4.69336 -0.30664,-3.29688 c -0.0155,-0.16785 -0.0516,-0.33315 -0.10743,-0.49219 -1.43198,-4.07897 -3.46657,-7.307095 -6.19922,-9.521482 -2.73264,-2.214386 -6.13512,-3.326171 -9.90039,-3.326171 l -24.16992,0 z m -43.66211,0.117187 0,16.914065 -2.20312,0.81054 c 0.0221,-9.0829 0.9557,-15.227191 2.20312,-17.724605 z m -152.222653,5.328125 0.476562,0 c 0.09642,0.215724 0.28125,0.87203 0.28125,1.988281 l 0,10.019529 c -1.6e-5,0.54497 0.216358,1.06764 0.601563,1.45313 l 0.351562,0.35156 c 0.385492,0.3852 0.908162,0.60158 1.453125,0.60156 l 13.710938,0 c 0.11395,-9.6e-4 0.227623,-0.0114 0.339844,-0.0312 l 0,0.66797 -17.566407,0 c -0.393383,3.4e-4 -0.778408,0.11354 -1.109375,0.32617 l 0,-9.23437 c 0.168697,-2.55353 0.558206,-4.402234 0.972657,-5.355471 0.208056,-0.47853 0.409187,-0.710763 0.480468,-0.771484 0.07128,-0.06072 -0.02674,-0.01563 0.0078,-0.01563 z m 216.830073,4.74805 c 0.0495,0.006 0.19271,0.028 0.21485,0.0332 1.13819,0.25293 1.99992,0.71524 2.74414,1.42969 0.0103,0.0105 0.0207,0.0209 0.0312,0.0312 0.69965,0.64368 1.33517,1.6364 1.82422,3.10351 0.39135,1.17405 0.55722,3.05075 0.63086,5.10547 -0.35642,0.26187 -0.62671,0.48184 -1.60742,1.10938 -0.007,0.005 -0.005,0.003 -0.0117,0.008 -0.69553,0.42457 -1.96299,1.11787 -2.94141,1.67578 l 0,-5.49805 c 0,-2.8872 -0.27817,-5.12502 -0.88477,-6.99804 z m -148.90429,3.68164 c 0.45917,0.0299 0.7295,0.098 0.95312,0.34961 0.25715,0.28928 0.57712,0.97761 0.73243,2.14062 l 0,24.93555 c 0,2.70361 0.17431,4.96486 0.5039,6.98633 -1.72674,-1.76615 -2.49805,-3.56527 -2.49805,-5.76563 l 0,-19.75 0.22071,-8.83008 c 0.0278,-0.0173 0.0603,-0.0524 0.0879,-0.0664 z m -34.150392,3.73437 c 1.003033,0.7164 2.084181,1.1406 3.214843,1.35938 l 0,5.09961 c -0.530154,0.35908 -1.016764,0.70234 -1.828125,1.16211 -0.362889,0.20007 -0.959932,0.49652 -1.386718,0.72265 z m 151.134762,0 c 1.00304,0.7164 2.08419,1.1406 3.21485,1.35938 l 0,5.09961 c -0.53015,0.35907 -1.01676,0.70234 -1.82813,1.16211 -0.36289,0.20007 -0.95993,0.49652 -1.38672,0.72265 z m 67.38477,0.53907 0.14258,0 0,29.92773 c 0,0.59606 -0.0846,0.74683 -0.11524,0.8418 -0.053,-0.0151 -0.22281,-0.0265 -0.22851,-0.0332 -0.0111,-0.0131 -0.18555,-0.28466 -0.18555,-1.05273 l 0,-29.65625 c 0,-0.0283 0.005,-0.0273 0.38672,-0.0273 z m -164.70899,3.96679 0.27344,0 c 0.52663,0.15167 0.80521,0.32416 1.04102,0.70508 0.25612,0.41374 0.48633,1.17359 0.48633,2.36719 l 0,17.82226 c 0,3.65765 0.6064,6.6664 1.68164,9.25782 -2.33708,-4.2533 -3.67578,-10.70807 -3.67579,-19.51172 l 0,-9.27735 c 0,-0.83368 0.13724,-1.21384 0.19336,-1.36328 z m -89.046871,2.51953 c 0.118283,0.0751 0.243937,0.13794 0.375,0.1875 0.560906,0.21447 0.855554,0.47443 1.148438,1.04297 0.292884,0.56854 0.519531,1.50493 0.519531,2.83789 l 0,13.00782 c 0,0.71395 -0.163812,0.95463 -0.146484,0.93359 0.01733,-0.021 0.144547,0 -0.259766,0 l -0.298828,0 c -0.117897,0 -0.256356,-0.34125 -0.443359,-0.87109 -0.403187,-1.14237 -0.894532,-3.24877 -0.894532,-6.12696 z m 237.562501,1.23633 c -0.0985,0.2383 -0.19162,0.74608 -0.27344,0.85938 -0.22871,0.31667 -0.14637,0.24804 -0.3789,0.24804 -1.13454,5.7e-4 -2.05412,0.92015 -2.05469,2.05469 l 0,0.48828 c -3.4e-4,0.50308 0.18381,0.98882 0.51758,1.36524 1.8108,2.03716 2.41211,3.5897 2.41211,4.00586 l 0,13.35742 c 0,1.13485 -0.47644,-1.01183 -0.95508,-2.42188 -1.32654,-4.01697 -3.16013,-9.92053 -5.26953,-16.85937 z m -83.70313,2.48242 0,15.77539 c 0,2.00938 -0.80976,3.67481 -2.57031,5.35157 l 0,-15.54688 c 0,-1.7936 -0.64377,-3.47529 -1.55078,-5.07422 1.19161,-0.27066 2.56554,-0.43798 4.12109,-0.50586 z m -104.136714,3.69727 c -3.294977,3.11928 -6.11872,4.98398 -8.09375,5.57031 l 0.585937,-0.084 c -2.228519,0 -4.310672,0.87117 -6.246094,2.30273 l 0,-0.53516 c 0.75837,-0.47901 1.907344,-1.1734 4.216797,-2.4121 l 0.0098,-0.006 c 2.292649,-1.21172 5.799748,-2.97287 9.527344,-4.83594 z m 151.134764,0 c -3.29497,3.11928 -6.11872,4.98398 -8.09375,5.57031 l 0.58594,-0.084 c -2.22852,0 -4.31067,0.87117 -6.2461,2.30273 l 0,-0.53516 c 0.75837,-0.47901 1.90735,-1.1734 4.2168,-2.4121 l 0.01,-0.006 c 2.29265,-1.21172 5.79975,-2.97287 9.52734,-4.83594 z m 38.41406,19.96875 c 1.65106,0.60663 3.04826,1.20725 4.11719,1.77734 l 0.0234,0.0117 c 1.13661,0.58665 1.99736,1.15251 2.60547,1.65625 3.13812,3.15829 4.4188,5.57988 4.69922,7.08008 -5.19293,-2.48231 -8.7555,-5.52495 -10.82813,-9.04297 -0.0263,-0.0447 -0.0544,-0.0883 -0.084,-0.13086 -0.0368,-0.053 -0.43239,-1.14004 -0.53321,-1.35156 z"
         id="path4313"
         inkscape:connector-curvature="0"
         sodipodi:nodetypes="cccccccccccsccsscccccccccccccccscccccscccccccccscccccccccccsccccccccsccccccsccccsccccccccccccccsccccccccccccsssccccsccccccssccssscccccccccccccccsccccccccscccccccccsccccccccccssccsccccccccssccccccccccsccccscccscccccccscccccccssccccccccsccccccccccssccccccsccccscccccscsccccccccccccccccccsccsccscccsscsscccssscscsccccccccscccccscscccccccccccccccccccccccccccc" />
    </g>
  </g>
  <g
     inkscape:label="Grey"
     inkscape:groupmode="layer"
     id="layer1"
     style="display:inline"
     transform="translate(-63.392063,-30.224812)"
     sodipodi:insensitive="true">
    <flowRoot
       xml:space="preserve"
       id="flowRoot3336"
       style="font-style:normal;font-variant:normal;font-weight:normal;font-stretch:normal;font-size:40px;line-height:125%;font-family:'Nightmare Hero';-inkscape-font-specification:'Nightmare Hero';letter-spacing:0px;word-spacing:0px;fill:#000000;fill-opacity:1;stroke:none;stroke-width:1px;stroke-linecap:butt;stroke-linejoin:miter;stroke-opacity:1"><flowRegion
         id="flowRegion3338"><rect
           id="rect3340"
           width="456.42856"
           height="192.14285"
           x="22.857143"
           y="34.505062"
           style="font-style:normal;font-variant:normal;font-weight:normal;font-stretch:normal;font-family:'Nightmare Hero';-inkscape-font-specification:'Nightmare Hero'" /></flowRegion><flowPara
         id="flowPara3342" /></flowRoot>    <g
       transform="translate(51.597578,-42.831675)"
       style="font-style:normal;font-weight:normal;font-size:40px;line-height:125%;font-family:sans-serif;letter-spacing:0px;word-spacing:0px;fill:#000000;fill-opacity:1;stroke:none;stroke-width:1px;stroke-linecap:butt;stroke-linejoin:miter;stroke-opacity:1"
       id="flowRoot3348-5">
      <path
         style="font-size:125px;letter-spacing:-2px;fill:#4d3f3f;fill-opacity:1"
         d="m 189.70117,76.121094 0,0.175781 c 1.875,2.490234 2.8125,4.892578 2.8125,7.207031 l -0.17578,3.691406 0,23.730468 -6.67969,2.46094 0.35157,-2.8125 c 0,-9.4336 0.82031,-15.76172 2.46093,-18.984376 l 0,-0.351563 -22.32422,20.214839 c 0,0.26368 0.64453,0.43946 1.9336,0.52735 1.875,0.70312 2.8125,2.05078 2.8125,4.04297 l 0,24.60937 c 0,6.67969 -3.16406,11.77734 -9.49219,15.29297 l 0,0.35156 27.94922,-5.09765 0,-0.17578 c -2.34375,-1.66992 -3.51563,-3.89649 -3.51563,-6.67969 l 0,-17.92969 c 0,-2.19727 -0.87891,-4.24804 -2.63671,-6.15234 l 0,-0.17578 c 2.22656,-0.9375 5.09765,-1.40625 8.61328,-1.40625 l 0.70312,0 0,17.92968 c 0,2.72461 -1.17188,5.12695 -3.51562,7.20704 l 0,0.17578 23.90625,0 0,-0.35157 c -4.57032,-1.875 -6.85547,-4.80469 -6.85547,-8.78906 l 0,-41.484374 c 0,-3.867187 1.93359,-6.972656 5.80078,-9.316406 l 0,-0.175781 z M 39.115234,84.601562 c -1.640624,4.453125 -4.804687,6.679688 -9.492187,6.679688 l -10.019531,0 -0.351563,0.351562 0,11.425778 -0.175781,3.51563 c -0.46875,5.09766 -1.875,8.02735 -4.21875,8.78906 l 0,0.52734 c 3.164063,2.34375 5.399214,6.82946 4.746094,13.35938 l -2,19.99609 0.175781,0.17579 c 3.955078,-4.18946 9.814453,-6.28516 17.578125,-6.28516 l 5.273437,0.17578 -0.351562,2.06641 c -1.40625,8.08594 -4.160156,15 -8.261719,20.74218 l 0,0.17579 0.175781,0 c 13.828126,-9.75586 22.742188,-19.76172 22.742188,-30.01563 l 0,-15.64453 c 0,-2.00779 0.895302,-3.51557 2.394531,-4.68555 l 0,22.69336 0.244141,0.24414 c 5.533854,0 8.823568,3.49936 13.86914,10.49805 l 0.488282,0 0,-0.24414 c 2.237955,-4.35384 7.655924,-7.36491 12.253906,-9.0332 2.604167,-0.0407 3.90625,-0.28484 3.90625,-0.73243 l 0.244141,-13.67187 -0.244141,0 c -3.580729,3.45866 -6.673177,5.57454 -9.277344,6.34765 -2.929687,0 -5.696614,1.70899 -8.300781,5.12696 l 0,-6.5918 c 0.732422,-0.52897 2.50293,-1.54525 5.310547,-3.05078 2.848307,-1.50553 6.774413,-3.50032 11.779297,-5.98242 l -0.244141,-3.66211 0,-4.39453 0,-10.25391 C 87.176561,102.96125 86.870405,103.0872 86.626953,103 l -3.662109,-0.24414 C 75.966146,101.49447 72.466797,98.727537 72.466797,94.455078 l -0.488281,0 -0.732422,2.685547 c -2.278646,3.133145 -4.801432,5.086265 -7.56836,5.859375 -4.23177,0.48829 -6.347656,0.89518 -6.347656,1.2207 l 0,10.79102 -19.621094,0 0,0.35156 c 1.992188,0.76172 2.988282,2.69531 2.988282,5.80078 l 0,13.00782 c 0,1.99218 -0.820313,2.98828 -2.460938,2.98828 l -0.527344,0 c -1.816406,0 -2.871093,-2.98829 -3.164062,-8.96485 l 0,-24.25781 c 0.351563,-5.390623 1.523438,-8.085938 3.515625,-8.085938 l 0.703125,0 c 1.40625,0 2.636978,1.3998 2.109375,4.042969 l 0,10.019529 0.351562,0.35156 13.710938,0 0.351562,-0.35156 0,-10.019529 c 0,-0.498046 0.0293,-0.921875 0.08789,-1.273437 0.08789,-0.351562 0.175781,-0.689453 0.263672,-1.011719 0.615234,-2.021484 1.27539,-3.515625 1.978516,-4.482422 0.703124,-0.996093 1.507812,-1.494141 2.416015,-1.494141 l 0,-0.351562 -12.832031,0 c -2.8125,0 -5.449219,-2.226563 -7.910156,-6.679688 z m 47.90625,9.121094 c 2.360026,2.807618 3.580729,6.876624 3.66211,12.207034 l 0.24414,28.32031 c -1.627604,6.02214 -3.255208,9.0332 -4.882812,9.0332 l 0,0.48828 20.751958,0 0,-1.46484 c -2.11589,-2.11588 -3.17383,-4.55729 -3.17383,-7.32422 l 0,-19.77539 0.24414,-9.76562 c 0.48828,-0.61036 1.05794,-1.01726 1.70898,-1.22071 l 0.24414,0 c 2.23796,0 3.54005,1.46485 3.90625,4.39453 l 0,25.14649 c 0,5.69661 0.73242,9.60286 2.19727,11.71875 0,1.54623 6.10352,3.01107 18.31055,4.39453 l 0,-0.24414 c -4.55729,-4.39453 -6.83594,-12.53255 -6.83594,-24.41406 l 0,-9.27735 c 0,-2.27864 0.65104,-3.41797 1.95312,-3.41797 l 0.97656,0 c 2.11589,0.52897 3.17383,2.23796 3.17383,5.12696 l 0,17.82226 c 0,4.1097 0.65104,7.36491 1.95313,9.76563 0,1.70898 6.10352,3.25521 18.31054,4.63867 l 0.24415,0 0,-0.24414 c -4.5573,-4.67936 -6.83594,-12.00358 -6.83594,-21.97266 l 0,-6.59179 c 0,-3.86556 -1.79036,-7.20215 -5.3711,-10.00977 -0.8138,-0.61035 -5.43261,-2.33919 -13.85546,-5.1875 -8.42285,-2.84831 -20.56836,-6.897463 -36.437504,-12.146484 z m 136.091796,0.732422 -0.73242,2.685547 c -2.27865,3.133145 -4.80143,5.086265 -7.56836,5.859375 -4.23177,0.48829 -6.34766,0.89518 -6.34766,1.2207 l 0,34.42383 0.24414,0.24414 c 5.53386,0 10.82358,3.49936 15.86914,10.49805 l 0.48829,0 0,-0.24414 c 2.23795,-4.35384 5.65592,-7.36491 10.2539,-9.0332 2.60417,-0.0407 3.90625,-0.28484 3.90625,-0.73243 l 0.24414,-13.67187 -0.24414,0 c -3.58072,3.45866 -6.67317,5.57454 -9.27734,6.34765 -2.92969,0 -5.69662,1.70899 -8.30078,5.12696 l 0,-6.5918 c 0.73242,-0.52897 2.50292,-1.54525 5.31054,-3.05078 2.84831,-1.50553 6.77442,-3.50032 11.7793,-5.98242 l -0.24414,-3.66211 0,-4.39453 0,-10.25391 c 0,0 0.15185,-0.27295 -0.73242,-0.24414 l -3.66211,-0.24414 c -6.9987,-1.26139 -10.49805,-4.028323 -10.49805,-8.300782 z m 10.83203,0.06055 -1.70898,0.244141 0,0.488281 c 6.51041,2.563477 9.76562,6.06282 9.76562,10.49804 l 0,30.51758 c 0.0319,1.31016 -0.0217,1.77465 0,3.17383 0,2.11589 -1.46484,3.66211 -4.39453,4.63867 l 0,0.48828 10.25391,0 9.76562,0 0,-0.73242 c -2.76692,-1.34277 -4.54626,-3.24738 -4.15039,-5.61523 l 0,-11.96289 0.73242,-0.24414 9.76563,17.33398 c 1.46485,4.19108 3.90625,7.52767 7.32422,10.00977 7.4056,4.23176 14.4043,6.34765 20.99609,6.34765 l 0,-0.48828 c -8.6263,-2.88899 -14.48568,-6.958 -17.57812,-12.20703 -0.65104,-0.93587 -1.72884,-3.62142 -3.23438,-8.05664 -1.46484,-4.43522 -3.39811,-10.62012 -5.79883,-18.55469 l 7.56836,-3.90625 -0.97656,-10.49805 c -2.68555,-7.649735 -7.4056,-11.474602 -14.16016,-11.474602 z m 55.92188,2.076172 c -2.03451,4.88281 -6.10352,7.32422 -12.20703,7.32422 l -0.48828,0 -0.48829,0.48828 0,12.69531 c -0.44758,2.92969 -1.50553,4.39453 -3.17382,4.39453 l 0,0.48828 c 1.95312,2.19727 2.92968,3.98764 2.92968,5.3711 l 0,15.13671 c 1.79037,0.65104 3.29493,1.30209 4.51563,1.95313 1.26139,0.65105 2.27962,1.30208 3.05273,1.95312 3.7435,3.74349 5.61524,6.83594 5.61524,9.27735 l 0.24414,0 c 3.45866,-6.02214 7.52767,-9.03321 12.20703,-9.03321 l 1.2207,0 0.48828,-0.48828 0,-15.625 c 0,-1.54622 1.30209,-2.76693 3.90625,-3.66211 -2.27864,-1.79036 -3.41797,-3.49935 -3.41797,-5.12695 l 0,-13.67187 -6.83593,-2.44141 c -4.72006,-3.37727 -7.08008,-6.388341 -7.08008,-9.0332 z m -39.8086,3.53906 0.73243,0 c 1.74967,0 3.33561,0.18457 4.75976,0.55078 1.46485,0.32552 2.70541,0.97657 3.72266,1.95313 1.01725,0.93587 1.81119,2.25781 2.38086,3.96679 0.56966,1.70898 0.85547,3.94597 0.85547,6.71289 -0.32552,0.32553 -1.2207,0.95671 -2.68555,1.89258 -1.46485,0.89519 -3.49935,2.05436 -6.10352,3.47852 l 0,-9.03321 c 0,-6.1849 -1.22071,-9.27734 -3.66211,-9.27734 z m -180.27734,5.06641 0.244141,0 c 1.993814,2.92968 4.1097,4.39453 6.347656,4.39453 l 0.732422,0 0,8.05664 c -0.691732,0.52897 -1.648438,1.1403 -2.869141,1.83203 -1.180013,0.65104 -2.664713,1.42318 -4.455078,2.31836 z m 151.13477,0 0.24414,0 c 1.99381,2.92968 8.5856,4.39453 6.34765,4.39453 l 0.73242,0 0,8.05664 c -0.69172,0.52897 -1.64843,1.1403 -2.86914,1.83203 -1.18001,0.65104 -2.66471,1.42318 -4.45507,2.31836 z m 69.43945,3.35742 0.48828,0 c 0.8138,0 1.38346,0.40689 1.70898,1.2207 l 0,30.76172 c 0,1.95313 -0.65104,2.92969 -1.95312,2.92969 -1.79037,0 -2.68555,-1.05794 -2.68555,-3.17383 l 0,-29.78516 c 0,-1.30208 0.8138,-1.95312 2.44141,-1.95312 z"
         id="path3420"
         inkscape:connector-curvature="0"
         sodipodi:nodetypes="cccccccccccssccccssccscsccccssccccsccccccsccccccccssccccccccccccccccccccccccscccssssccsssccccscccccscccccccccscccscscccssscssccccsscscccccsccccccccccccccccccccccccscccccccscccccccccccsccscccccscccccsccscscccccsccscccsccccscccccccscccccsscsssss" />
    </g>
  </g>
  <g
     id="g3422"
     inkscape:groupmode="layer"
     inkscape:label="White"
     style="display:inline"
     transform="translate(-63.392063,-30.224812)">
    <flowRoot
       style="font-style:normal;font-variant:normal;font-weight:normal;font-stretch:normal;font-size:40px;line-height:125%;font-family:'Nightmare Hero';-inkscape-font-specification:'Nightmare Hero';letter-spacing:0px;word-spacing:0px;fill:#000000;fill-opacity:1;stroke:none;stroke-width:1px;stroke-linecap:butt;stroke-linejoin:miter;stroke-opacity:1"
       id="flowRoot3424"
       xml:space="preserve"><flowRegion
         id="flowRegion3426"><rect
           style="font-style:normal;font-variant:normal;font-weight:normal;font-stretch:normal;font-family:'Nightmare Hero';-inkscape-font-specification:'Nightmare Hero'"
           y="34.505062"
           x="22.857143"
           height="192.14285"
           width="456.42856"
           id="rect3428" /></flowRegion><flowPara
         id="flowPara3430" /></flowRoot>    <g
       id="g3444"
       style="font-style:normal;font-weight:normal;font-size:40px;line-height:125%;font-family:sans-serif;letter-spacing:0px;word-spacing:0px;fill:#000000;fill-opacity:1;stroke:none;stroke-width:1px;stroke-linecap:butt;stroke-linejoin:miter;stroke-opacity:1"
       transform="translate(51.29799,-43.131602)">
      <path
         style="font-size:125px;letter-spacing:-2px;fill:#ffffff;fill-opacity:1"
         d="m 192.26562,78.326172 c 0.8448,1.661021 1.42294,3.328379 1.45508,4.998047 0.0149,0.05157 0.0241,0.104623 0.0274,0.158203 1e-5,0.0072 0.004,0.01431 0.004,0.02148 l -0.002,0 c 7.8e-4,0.01952 7.8e-4,0.03907 0,0.05859 l -0.17383,3.662109 0,23.701169 c -0.003,0.65109 -0.15398,1.00395 -0.81055,1.16211 l -6.67968,2.46094 c -0.90261,0.35419 -1.76623,0.12139 -1.65821,-1.31445 l 0.34766,-2.78907 c 0.006,-6.70232 0.44165,-11.715591 1.33008,-15.39648 l -17.48242,15.83203 c 2.18472,0.87021 3.50781,2.78088 3.50781,5.14258 l 0,24.60937 c 0,5.52272 -2.27724,10.08216 -6.36914,13.5918 l 21.16992,-3.86328 c -1.47937,-1.66507 -2.33594,-3.70338 -2.33594,-6.03711 l 0,-17.92969 c 0,-1.8705 -0.7099,-3.58056 -2.30859,-5.3125 -0.64148,-1.24909 -0.32863,-1.76126 0.42963,-2.15624 2.44038,-1.02753 5.46831,-1.50391 9.09375,-1.5039 l 0.70312,0 c 1.20643,-0.0825 1.27801,0.62567 1.23828,1.23828 l 0,17.92968 c 0,2.25053 -0.803,4.31393 -2.19336,6.14454 l 17.50977,0 c -2.68006,-1.98826 -4.25781,-4.64884 -4.25781,-7.90235 l 0,-41.484372 c 0,-3.598849 1.72418,-6.635828 4.67773,-9.005859 L 192.26566,78.326174 Z M 39.277344,86.806641 c -1.984708,3.608152 -5.282685,5.71289 -9.654297,5.71289 l -9.132813,0 0,10.539059 -0.002,0 c 8.91e-4,0.0208 8.91e-4,0.0417 0,0.0625 l -0.175781,3.51563 c -0.0014,0.017 -0.0033,0.0339 -0.0059,0.0508 l 0.0039,0 c -0.242671,2.63905 -0.723229,4.77626 -1.523438,6.44336 -0.57111,1.18982 -1.406552,2.01327 -2.347656,2.62891 2.968201,2.7965 4.402344,7.33364 4.402344,13.49023 l 0,17.70898 c 4.122755,-3.32714 9.627892,-5.06054 16.515625,-5.06054 0.01369,2.8e-4 0.02737,9.5e-4 0.04102,0.002 l 0,-0.002 5.273437,0.17578 c 1.396358,0.0529 1.371126,0.35243 1.179688,1.44726 L 43.5,145.58789 l 0,0.002 c -1.049064,6.03213 -2.918185,11.38882 -5.472656,16.16407 10.493259,-8.47245 15.669922,-16.96224 15.669922,-25.47266 l 0,-15.64453 c 0,-1.76199 0.760578,-3.17285 1.783203,-4.38672 l -14.939453,0 c 0.157769,0.20887 0.38348,0.32322 0.509765,0.56836 0.620582,1.20466 0.884766,2.66108 0.884766,4.3457 l 0,13.00782 c 0,1.16486 -0.234795,2.22344 -0.898438,3.02929 -0.676703,0.82171 -1.71646,1.19727 -2.800781,1.19727 l -0.527344,0 c -0.811931,0 -1.561833,-0.36744 -2.113281,-0.94141 -0.536215,-0.5581 -0.907447,-1.27617 -1.207031,-2.125 -0.600544,-1.70154 -0.930583,-4.02649 -1.080078,-7.07617 -8.37e-4,-0.0202 -8.37e-4,-0.0404 0,-0.0606 l -0.002,0 0,-24.25781 0.002,0 c -0.0015,-0.0267 -0.0015,-0.0534 0,-0.0801 0.180625,-2.76959 0.557498,-4.899234 1.24414,-6.478514 0.343305,-0.7896 0.774859,-1.463593 1.363282,-1.964844 0.599372,-0.510576 1.355494,-0.800781 2.144531,-0.800781 l 0.703125,0 c 1.139234,0 2.15351,0.667274 2.679687,1.675781 0.503075,0.964227 0.978451,2.187682 0.667969,3.605469 l 0,9.132809 11.9375,0 0,-9.132809 c 0,-0.546878 0.03167,-1.035721 0.105469,-1.478515 0.0057,-0.03173 0.01357,-0.06305 0.02344,-0.09375 l -0.0039,-0.002 c 0.08953,-0.358119 0.178749,-0.704244 0.269531,-1.037109 l 0.002,0 c 0.003,-0.0118 0.0062,-0.02352 0.0098,-0.03516 0.618373,-2.031799 1.284501,-3.580833 2.091797,-4.728516 l -9.345703,0 c -3.010045,0 -5.618614,-2.161116 -7.923828,-5.71289 z m 50.394531,8.941406 c 1.401945,2.733182 2.174239,6.070753 2.244141,10.089843 4.4e-4,0.0253 0.0055,0.0469 0.0059,0.0723 l 0,0.01 0.244141,28.32031 -0.03711,0 c 0.02383,0.11029 0.02181,0.22461 -0.0059,0.33399 -0.82727,3.06091 -1.653937,5.38352 -2.548828,7.03906 -0.203863,0.37715 -0.451231,0.60683 -0.669922,0.91992 l 16.482423,0 c -1.92858,-2.17911 -3.00195,-4.73597 -3.00195,-7.55078 l 0,-19.77539 c 4.7e-4,-0.01 10e-4,-0.0196 0.002,-0.0293 l -0.002,0 0.24414,-9.76562 c 0.006,-0.13458 0.0481,-0.26503 0.12304,-0.37695 0.0148,-0.13372 0.0661,-0.26078 0.14844,-0.36719 0.6164,-0.77051 1.3996,-1.34546 2.30664,-1.62891 0.11985,-0.0361 0.24695,-0.0408 0.36914,-0.0137 l 0,-0.043 0.24414,0 c 1.39982,0 2.68782,0.5099 3.58008,1.51367 0.88243,0.99275 1.35245,2.34885 1.55469,3.9668 0.021,8.43214 0.01,16.86608 0.01,25.29883 0.36075,3.79352 0.22925,8.19531 2.13282,11.42578 0.0383,0.0363 0.22508,0.18091 0.51953,0.32617 0.60929,0.30059 1.69552,0.66717 3.17187,1.02149 2.39329,0.57438 6.39422,1.14788 10.88477,1.71289 -3.69082,-4.99368 -5.51366,-12.58463 -5.51367,-23.03125 l 0,-9.27735 c 0,-1.25282 0.15687,-2.31065 0.65234,-3.17773 0.52095,-0.91169 1.48676,-1.47852 2.53906,-1.47852 l 0.97656,0 0,0.0293 c 0.0997,-0.0182 0.20217,-0.0155 0.30079,0.008 1.32316,0.33079 2.43497,1.10122 3.13281,2.22852 0.6922,1.11816 0.97851,2.5049 0.97851,4.09961 l 0,17.82226 c 0,3.97846 0.64261,7.0368 1.80274,9.17578 0,0 0.38114,0.53412 0.63867,0.74805 0.60042,0.32023 1.68439,0.70915 3.15625,1.08203 2.49323,0.63162 6.39255,1.24972 11.16406,1.84375 -3.68365,-4.94933 -5.5664,-11.80061 -5.5664,-20.66211 l 0,-6.59179 c 0,-3.47952 -1.52648,-6.38265 -4.87696,-9.01758 0.0496,0.0372 -0.10189,-0.0649 -0.29297,-0.16211 -0.19106,-0.0972 -0.45547,-0.22161 -0.77539,-0.35938 -0.64831,-0.27917 -1.55192,-0.63638 -2.69531,-1.06445 -2.28689,-0.85615 -5.53971,-1.99813 -9.74414,-3.41992 -7.82808,-2.64718 -19.58702,-6.56371 -33.878905,-11.294923 z m 146.296875,0.0059 c 1.77041,0.950956 3.36022,1.974098 4.49805,3.197266 1.80761,1.943177 2.77343,4.270507 2.77343,6.794917 l 0,30.46485 c -0.0487,1.69802 0.0317,2.40752 -0.12307,3.85348 l 0.006,0.006 -0.008,0.008 c -0.12916,1.08645 -0.52559,2.12642 -1.3125,2.95704 -0.11896,0.12557 -0.31577,0.17744 -0.44726,0.29101 l 6.50586,0 6.84375,0 c -1.55401,-1.36836 -2.4668,-3.10273 -2.4668,-5.10937 l 0,-11.96289 c 0.0622,-0.79343 0.36689,-0.80362 0.84766,-1.17383 l 0.73242,-0.24414 c 0.92841,-0.25316 1.15219,0.1037 1.46875,0.5664 l 9.76562,17.33399 c 0.0354,0.0635 0.061,0.132 0.0762,0.20312 l 0.0137,-0.006 c 1.38456,3.96134 3.64736,7.0473 6.8418,9.38086 4.60313,2.62255 8.99282,4.30235 13.21289,5.21875 -5.22431,-2.60472 -9.13184,-5.84575 -11.50391,-9.83789 -0.89779,-1.29751 -1.87579,-3.90425 -3.38477,-8.34961 l -0.002,-0.01 c -0.002,-0.005 -0.004,-0.0164 -0.006,-0.0215 -1.46997,-4.45151 -3.40305,-10.63135 -5.80273,-18.5625 -0.41216,-1.1257 0.19813,-1.16752 0.6172,-1.45898 l 6.82618,-3.52149 -0.88282,-9.47851 c -1.28484,-3.60989 -3.00571,-6.2343 -5.11718,-7.945313 -2.13701,-1.731712 -4.68099,-2.59375 -7.82618,-2.59375 l -22.14648,0 z m -163.802734,2.21285 c -2.372259,3.227183 -5.088242,5.369883 -8.154297,6.226563 -0.06312,0.0164 -0.128152,0.0243 -0.19336,0.0234 l 0.002,0.0137 c -2.100087,0.24232 -3.67036,0.46636 -4.667968,0.6582 -0.284061,0.0546 -0.399568,0.0919 -0.583985,0.13867 -0.0337,10.92597 -0.127965,21.84144 -1e-6,32.76949 5.319981,0.3778 10.308283,3.74794 14.929688,9.73632 2.370413,-4.02526 5.797026,-6.96725 10.263672,-8.58789 2.54e-4,-7e-5 0.404297,-0.0742 0.404297,-0.0742 1.255516,-0.0196 2.183679,-0.0963 2.699218,-0.1914 l 0.1875,-10.47852 c -2.853349,2.50135 -5.482447,4.32588 -7.884765,5.03906 -0.115106,0.0328 -0.236495,0.0368 -0.353516,0.0117 l 0,0.0391 c -2.450432,0 -4.844705,1.39712 -7.314453,4.63867 -1.104761,0.95521 -2.179423,0.74478 -2.224609,-0.74996 l 0,-6.5918 c 0.0026,-0.19562 0.08349,-0.38204 0.224563,-0.51759 0.02671,-0.19503 0.130917,-0.37106 0.289062,-0.48828 0.883169,-0.63783 2.627935,-1.62495 5.44336,-3.13476 l 0.0059,-0.002 0.0078,-0.004 c 2.685439,-1.41944 6.493593,-3.34506 11.068359,-5.61914 l -0.191406,-2.84766 c -0.0015,-0.0273 -0.0015,-0.0547 0,-0.082 l -0.002,0 0,-4.39453 c -0.0098,-2.4655 0.03279,-7.89395 -0.04101,-9.29296 l -3.197266,-0.21289 c -0.04555,-0.004 -0.09067,-0.0114 -0.134765,-0.0234 l -0.002,0.006 c -3.618547,-0.65218 -6.430904,-1.69332 -8.421875,-3.26758 -0.973294,-0.769576 -1.641255,-1.720391 -2.158203,-2.740233 z m 151.134764,0.002 c -2.37205,3.226483 -5.08864,5.368043 -8.1543,6.224613 -0.0631,0.0164 -0.12815,0.0242 -0.19336,0.0234 l 0.002,0.0137 c -2.10009,0.24232 -3.67036,0.46636 -4.66797,0.6582 -0.28406,0.0546 -0.39957,0.0919 -0.58399,0.13867 l 0,32.76954 c 5.31999,0.3778 10.3083,3.74794 14.92969,9.73632 2.37041,-4.02526 5.79703,-6.96725 10.26367,-8.58789 0.22677,-0.0752 0.3705,-0.068 0.4043,-0.0742 1.25552,-0.0196 2.18368,-0.0963 2.69922,-0.1914 l 0.1875,-10.47852 c -2.85334,2.50135 -5.48245,4.32588 -7.88477,5.03906 -0.1151,0.0328 -0.23649,0.0368 -0.35351,0.0117 l 0,0.0391 c -2.45044,0 -4.84471,1.39712 -7.31445,4.63867 -1.08222,1.08264 -2.11958,1.27729 -2.22461,-0.74996 l 0,-6.5918 c -0.0443,-0.58423 0.073,-0.75408 0.51367,-1.00586 0.88317,-0.63783 2.62793,-1.62495 5.44336,-3.13476 l 0.006,-0.002 0.008,-0.004 c 2.68544,-1.41944 6.49359,-3.34506 11.06836,-5.61914 l -0.19141,-2.84766 c -0.002,-0.0273 -0.002,-0.0547 0,-0.082 l -0.002,0 0,-4.39453 c -0.01,-2.46557 0.0328,-7.8938 -0.0411,-9.29296 l -3.19726,-0.21289 c -0.0456,-0.004 -0.0907,-0.0114 -0.13477,-0.0234 l -0.002,0.006 c -3.61855,-0.65218 -6.43091,-1.69332 -8.42188,-3.26758 -0.97289,-0.769262 -1.64115,-1.718925 -2.1582,-2.738283 z m 26.74805,0.923781 0.01,0 0.73243,0 c 1.82455,0 3.50224,0.193041 5.03515,0.583984 1.6387,0.365712 3.08129,1.120868 4.25391,2.230468 0.011,0.007 0.0272,0.0188 0.0312,0.0215 0.002,0.002 0.0127,0.007 0.0137,0.008 l 0,0.002 0.002,0.002 c 1.20062,1.11059 2.08566,2.62416 2.70117,4.47071 0.63239,1.89714 0.91993,4.25169 0.91993,7.10351 -0.01,0.67742 -0.0793,0.66524 -0.36133,0.87696 -0.52854,0.52855 -1.41083,1.10707 -2.85352,2.02929 -0.0208,0.0133 -0.02,0.0159 -0.041,0.0293 -0.008,0.005 -0.0155,0.009 -0.0234,0.0137 -1.49416,0.91311 -3.53817,2.07819 -6.15234,3.50781 -0.9923,0.21569 -1.81625,0.14817 -1.83399,-1.08593 l 0,-9.03321 c 0,-3.00952 -0.32329,-5.22501 -0.82812,-6.5039 -0.253,-0.64094 -0.54548,-1.03906 -0.79297,-1.24805 -0.26031,-0.21982 -0.43905,-0.28711 -0.80274,-0.28711 -0.83079,0.0825 -1.24485,-0.30523 -1.23828,-1.23828 l 0,-0.24414 c 0.007,-0.885532 0.30392,-1.229924 1.22852,-1.238282 z m 39.74805,0.160156 c -2.43917,3.863486 -6.48785,6.003456 -11.875,6.072266 l 0,11.97461 -0.0117,0 c 0.007,0.0623 0.007,0.12534 -0.002,0.1875 -0.24079,1.5761 -0.64341,2.85617 -1.34961,3.83398 -0.36713,0.50835 -0.84844,0.83495 -1.35937,1.08399 1.47369,1.83105 2.47851,3.50977 2.47851,5.14844 l 0,14.32421 c 1.43729,0.54928 2.7858,1.10125 3.85938,1.67383 1.31067,0.67761 2.39982,1.36692 3.26758,2.09766 0.0272,0.0229 0.0526,0.0477 0.0762,0.0742 l 0.004,-0.004 c 2.77372,2.77372 4.52926,5.22145 5.34375,7.52344 3.31817,-4.83712 7.27572,-7.64063 11.8457,-7.64063 l 0.4707,0 0,-14.875 c 0,-1.13258 0.51767,-2.1821 1.36719,-2.97851 0.45705,-0.42849 1.10709,-0.70386 1.71875,-1.00977 -1.536,-1.50859 -2.59766,-3.08067 -2.59766,-4.80078 l 0,-12.79883 -6.01367,-2.14648 0.0137,-0.0371 c -0.11451,-0.0159 -0.22361,-0.0587 -0.31836,-0.125 -3.65802,-2.61737 -5.94935,-5.07847 -6.91796,-7.578126 z M 69.771484,103.959 l 0.253907,0 c 0.512575,0.15 0.724801,0.3332 1.02539,0.54102 1.873819,2.75336 3.623546,3.85352 5.322266,3.85352 l 0.732422,0 c 1.010712,0.14228 1.252566,0.62406 1.238281,1.23828 l 0,8.05664 c -0.06866,0.62358 -0.486328,0.98242 -0.486328,0.98242 -0.763053,0.58352 -1.758429,1.21863 -3.009766,1.92773 l 0,-0.002 -0.01367,0.008 c -1.201914,0.66313 -2.699717,1.44166 -4.5,2.3418 -1.573861,0.24998 -1.734705,0.30999 -1.791015,-1.10742 l 0,-16.60156 c 1.26e-4,-0.58405 0.102223,-1.23433 1.228515,-1.23829 z m 151.134766,0 0.25391,0 c 0.20175,0.003 0.39329,0.0892 0.52929,0.23829 0.20009,0.0281 0.37965,0.13762 0.4961,0.30273 1.87381,2.75336 3.62356,3.85352 5.32226,3.85352 l 0.73242,0 c 1.29484,0.20478 1.16752,0.60354 1.23829,1.23828 l 0,8.05664 c -0.14726,0.48851 -0.007,0.59292 -0.48633,0.98242 -0.76305,0.58352 -1.75842,1.21863 -3.00977,1.92773 l 0,-0.002 -0.0137,0.008 c -1.20191,0.66313 -2.69973,1.44167 -4.5,2.3418 -1.35842,0.55372 -1.82564,0.43938 -1.79102,-1.10742 l 0,-16.60156 c 0.13687,-0.8923 0.55314,-1.34169 1.22852,-1.23829 z m 69.44922,3.35743 0.48828,0 c 1.27644,-3e-5 2.38428,0.81226 2.85937,2 0.0563,0.14671 0.0638,0.30765 0.0215,0.45898 l 0.0664,0 0,30.76172 c 0,1.10944 -0.16527,2.0897 -0.69532,2.88477 -0.55429,0.83145 -1.50464,1.2832 -2.49609,1.2832 -1.15105,0 -2.24134,-0.3843 -2.95899,-1.23242 -0.70681,-0.83533 -0.96484,-1.94764 -0.96484,-3.17969 l 0,-29.78516 c 0,-0.92747 0.33748,-1.84224 1.07422,-2.43164 0.71507,-0.57204 1.62943,-0.75977 2.60547,-0.75976 z m -26.6582,35.9531 c 0.002,0.009 0.019,0.0502 0.0293,0.0781 -0.0158,-0.031 -0.022,-0.0421 -0.002,0.006 -0.0151,-0.0262 -0.0208,-0.0326 0.002,0.0156 -0.0281,-0.0447 -0.0108,-0.01 0.0391,0.082 0.002,0.004 0.002,0.006 0.004,0.01 l 0.002,0.002 c 0.0341,0.0872 0.0422,0.10873 0.0254,0.0566 0.0221,0.0489 0.0233,0.046 0.0156,0.0234 0.0197,0.0384 0.0146,0.0258 0.006,0.004 0.0398,0.0702 0.0554,0.0915 -0.0371,-0.0879 -0.002,-0.003 -10e-5,-6.8e-4 -0.002,-0.004 -0.002,-0.003 -1.8e-4,-4.8e-4 -0.002,-0.004 -0.003,-0.005 -0.001,-7.2e-4 -0.004,-0.006 -0.001,-0.003 10e-4,-0.001 0,-0.004 l -0.002,-0.002 c -0.002,-0.004 -2.7e-4,-0.001 -0.002,-0.006 -10e-4,-0.004 -5.4e-4,-4.8e-4 -0.002,-0.004 l 0,-0.002 c -10e-4,-0.003 -6.2e-4,-6.6e-4 -0.002,-0.004 -0.0518,-0.12532 -0.0732,-0.17138 -0.0684,-0.1543 z m 19.89453,3.06831 c 0.0118,0.013 0.0756,0.0717 0.11523,0.10938 -0.09,-0.067 -0.025,-0.007 0.14258,0.13476 0.008,0.007 0.01,0.009 0.0176,0.0156 0.15846,0.14566 0.2192,0.19674 0.13867,0.11328 0.13599,0.11131 0.19165,0.15078 -0.12695,-0.13086 l -0.004,-0.004 c -0.007,-0.005 -0.001,-6.6e-4 -0.008,-0.006 l -0.002,-0.002 c -0.005,-0.004 -0.001,-3.3e-4 -0.006,-0.004 -0.22401,-0.19739 -0.29321,-0.2548 -0.26758,-0.22656 z"
         id="path4315"
         inkscape:connector-curvature="0"
         sodipodi:nodetypes="ccccccccccccccssccssccsccsccssccccscccccccscscccccccccssccssssssssccccccssssssccscccccccscccscccccsccscccccccccscccccscsssscccsssccscsscsccscccssccccscccscccccccccccccccccssccccccccccccccccccccccccccccccccccscccccccccccccccccccccccccccccccccsccccsccccccscccccccsssccccccccccccsccccccscsccscccccccccsccccccccccccccccscccccccccccccccccsssssscccccccccccccccccccccccccccccccccccc" />
    </g>
  </g>
</svg>
