solid OpenSCAD_Model
  facet normal 0 0 1
    outer loop
      vertex 2 3.4641 3
      vertex 2 -3.4641 3
      vertex 4 0 3
    endloop
  endfacet
  facet normal -0 0 1
    outer loop
      vertex -2 3.4641 3
      vertex 2 -3.4641 3
      vertex 2 3.4641 3
    endloop
  endfacet
  facet normal 0 0 1
    outer loop
      vertex -2 3.4641 3
      vertex -2 -3.4641 3
      vertex 2 -3.4641 3
    endloop
  endfacet
  facet normal 0 -0 1
    outer loop
      vertex -2 -3.4641 3
      vertex -2 3.4641 3
      vertex -4 -0 3
    endloop
  endfacet
  facet normal 0.433013 0.25 0.866025
    outer loop
      vertex 6 3.4641 1
      vertex 2 3.4641 3
      vertex 4 0 3
    endloop
  endfacet
  facet normal 0 0.5 0.866025
    outer loop
      vertex 0 6.9282 1
      vertex -2 3.4641 3
      vertex 2 3.4641 3
    endloop
  endfacet
  facet normal -0.433013 0.25 0.866025
    outer loop
      vertex -6 3.4641 1
      vertex -4 -0 3
      vertex -2 3.4641 3
    endloop
  endfacet
  facet normal -0.433013 -0.25 0.866025
    outer loop
      vertex -6 -3.4641 1
      vertex -2 -3.4641 3
      vertex -4 -0 3
    endloop
  endfacet
  facet normal 0 -0.5 0.866025
    outer loop
      vertex -0 -6.9282 1
      vertex 2 -3.4641 3
      vertex -2 -3.4641 3
    endloop
  endfacet
  facet normal 0.433013 -0.25 0.866025
    outer loop
      vertex 6 -3.4641 1
      vertex 4 0 3
      vertex 2 -3.4641 3
    endloop
  endfacet
  facet normal 0.353553 0.612373 0.707107
    outer loop
      vertex 0 6.9282 1
      vertex 2 3.4641 3
      vertex 6 3.4641 1
    endloop
  endfacet
  facet normal -0.353553 0.612373 0.707107
    outer loop
      vertex -6 3.4641 1
      vertex -2 3.4641 3
      vertex 0 6.9282 1
    endloop
  endfacet
  facet normal -0.707107 0 0.707107
    outer loop
      vertex -6 -3.4641 1
      vertex -4 -0 3
      vertex -6 3.4641 1
    endloop
  endfacet
  facet normal -0.353553 -0.612373 0.707107
    outer loop
      vertex -0 -6.9282 1
      vertex -2 -3.4641 3
      vertex -6 -3.4641 1
    endloop
  endfacet
  facet normal 0.353553 -0.612373 0.707107
    outer loop
      vertex 6 -3.4641 1
      vertex 2 -3.4641 3
      vertex -0 -6.9282 1
    endloop
  endfacet
  facet normal 0.707107 0 0.707107
    outer loop
      vertex 6 3.4641 1
      vertex 4 0 3
      vertex 6 -3.4641 1
    endloop
  endfacet
  facet normal 0.5 0.866026 -0
    outer loop
      vertex 6 3.4641 -1
      vertex 0 6.9282 1
      vertex 6 3.4641 1
    endloop
  endfacet
  facet normal 0.5 0.866026 0
    outer loop
      vertex 0 6.9282 1
      vertex 6 3.4641 -1
      vertex 0 6.9282 -1
    endloop
  endfacet
  facet normal -0.5 0.866026 0
    outer loop
      vertex 0 6.9282 -1
      vertex -6 3.4641 1
      vertex 0 6.9282 1
    endloop
  endfacet
  facet normal -0.5 0.866026 0
    outer loop
      vertex -6 3.4641 1
      vertex 0 6.9282 -1
      vertex -6 3.4641 -1
    endloop
  endfacet
  facet normal -1 0 0
    outer loop
      vertex -6 -3.4641 -1
      vertex -6 3.4641 1
      vertex -6 3.4641 -1
    endloop
  endfacet
  facet normal -1 -0 0
    outer loop
      vertex -6 3.4641 1
      vertex -6 -3.4641 -1
      vertex -6 -3.4641 1
    endloop
  endfacet
  facet normal -0.5 -0.866026 0
    outer loop
      vertex -6 -3.4641 -1
      vertex -0 -6.9282 1
      vertex -6 -3.4641 1
    endloop
  endfacet
  facet normal -0.5 -0.866026 -0
    outer loop
      vertex -0 -6.9282 1
      vertex -6 -3.4641 -1
      vertex -0 -6.9282 -1
    endloop
  endfacet
  facet normal 0.5 -0.866026 0
    outer loop
      vertex -0 -6.9282 -1
      vertex 6 -3.4641 1
      vertex -0 -6.9282 1
    endloop
  endfacet
  facet normal 0.5 -0.866026 0
    outer loop
      vertex 6 -3.4641 1
      vertex -0 -6.9282 -1
      vertex 6 -3.4641 -1
    endloop
  endfacet
  facet normal 1 -0 0
    outer loop
      vertex 6 -3.4641 1
      vertex 6 3.4641 -1
      vertex 6 3.4641 1
    endloop
  endfacet
  facet normal 1 0 0
    outer loop
      vertex 6 3.4641 -1
      vertex 6 -3.4641 1
      vertex 6 -3.4641 -1
    endloop
  endfacet
  facet normal 0.353553 0.612373 -0.707107
    outer loop
      vertex 2 3.4641 -3
      vertex 0 6.9282 -1
      vertex 6 3.4641 -1
    endloop
  endfacet
  facet normal -0.353553 0.612373 -0.707107
    outer loop
      vertex -2 3.4641 -3
      vertex -6 3.4641 -1
      vertex 0 6.9282 -1
    endloop
  endfacet
  facet normal -0.707107 0 -0.707107
    outer loop
      vertex -4 -0 -3
      vertex -6 -3.4641 -1
      vertex -6 3.4641 -1
    endloop
  endfacet
  facet normal -0.353553 -0.612373 -0.707107
    outer loop
      vertex -2 -3.4641 -3
      vertex -0 -6.9282 -1
      vertex -6 -3.4641 -1
    endloop
  endfacet
  facet normal 0.353553 -0.612373 -0.707107
    outer loop
      vertex 2 -3.4641 -3
      vertex 6 -3.4641 -1
      vertex -0 -6.9282 -1
    endloop
  endfacet
  facet normal 0.707107 0 -0.707107
    outer loop
      vertex 4 0 -3
      vertex 6 3.4641 -1
      vertex 6 -3.4641 -1
    endloop
  endfacet
  facet normal 0.433013 0.25 -0.866025
    outer loop
      vertex 2 3.4641 -3
      vertex 6 3.4641 -1
      vertex 4 0 -3
    endloop
  endfacet
  facet normal 0 0.5 -0.866025
    outer loop
      vertex -2 3.4641 -3
      vertex 0 6.9282 -1
      vertex 2 3.4641 -3
    endloop
  endfacet
  facet normal -0.433013 0.25 -0.866025
    outer loop
      vertex -4 -0 -3
      vertex -6 3.4641 -1
      vertex -2 3.4641 -3
    endloop
  endfacet
  facet normal -0.433013 -0.25 -0.866025
    outer loop
      vertex -2 -3.4641 -3
      vertex -6 -3.4641 -1
      vertex -4 -0 -3
    endloop
  endfacet
  facet normal -0 -0.5 -0.866025
    outer loop
      vertex 2 -3.4641 -3
      vertex -0 -6.9282 -1
      vertex -2 -3.4641 -3
    endloop
  endfacet
  facet normal 0.433013 -0.25 -0.866025
    outer loop
      vertex 4 0 -3
      vertex 6 -3.4641 -1
      vertex 2 -3.4641 -3
    endloop
  endfacet
  facet normal 0 0 -1
    outer loop
      vertex 2 -3.4641 -3
      vertex 2 3.4641 -3
      vertex 4 0 -3
    endloop
  endfacet
  facet normal 0 0 -1
    outer loop
      vertex -2 -3.4641 -3
      vertex 2 3.4641 -3
      vertex 2 -3.4641 -3
    endloop
  endfacet
  facet normal 0 0 -1
    outer loop
      vertex -2 -3.4641 -3
      vertex -2 3.4641 -3
      vertex 2 3.4641 -3
    endloop
  endfacet
  facet normal 0 -0 -1
    outer loop
      vertex -2 3.4641 -3
      vertex -2 -3.4641 -3
      vertex -4 -0 -3
    endloop
  endfacet
endsolid OpenSCAD_Model
