solid OpenSCAD_Model
  facet normal 0 -0.5 0.866025
    outer loop
      vertex 14.866 -3.4641 3
      vertex 10.866 -3.4641 3
      vertex 12.866 -6.9282 1
    endloop
  endfacet
  facet normal -0.353557 0.612373 0.707104
    outer loop
      vertex 9.86603 5.19615 1
      vertex 10.866 3.4641 3
      vertex 12.866 6.9282 1
    endloop
  endfacet
  facet normal -0.353555 0.612375 0.707104
    outer loop
      vertex 10.866 3.4641 3
      vertex 9.86603 5.19615 1
      vertex 6.86603 3.4641 1
    endloop
  endfacet
  facet normal 0.353553 0.612373 0.707107
    outer loop
      vertex 18.866 3.4641 1
      vertex 12.866 6.9282 1
      vertex 14.866 3.4641 3
    endloop
  endfacet
  facet normal -0.433015 0.249999 0.866024
    outer loop
      vertex 10.866 3.4641 3
      vertex 6.86603 3.4641 1
      vertex 8.86602 0 3
    endloop
  endfacet
  facet normal 0.433013 0.25 0.866025
    outer loop
      vertex 18.866 3.4641 1
      vertex 14.866 3.4641 3
      vertex 16.866 0 3
    endloop
  endfacet
  facet normal 0.5 0.866026 -0
    outer loop
      vertex 18.866 3.4641 -1
      vertex 12.866 6.9282 1
      vertex 18.866 3.4641 1
    endloop
  endfacet
  facet normal 0.5 0.866026 0
    outer loop
      vertex 12.866 6.9282 1
      vertex 18.866 3.4641 -1
      vertex 12.866 6.9282 -1
    endloop
  endfacet
  facet normal 0.353553 -0.612373 -0.707107
    outer loop
      vertex 18.866 -3.4641 -1
      vertex 12.866 -6.9282 -1
      vertex 14.866 -3.4641 -3
    endloop
  endfacet
  facet normal 0 0.5 0.866025
    outer loop
      vertex 12.866 6.9282 1
      vertex 10.866 3.4641 3
      vertex 14.866 3.4641 3
    endloop
  endfacet
  facet normal -0.433015 -0.249999 0.866024
    outer loop
      vertex 8.86602 0 3
      vertex 6.86603 -3.4641 1
      vertex 10.866 -3.4641 3
    endloop
  endfacet
  facet normal -1 0 0
    outer loop
      vertex 6.86603 -3.4641 -1
      vertex 6.86603 3.4641 1
      vertex 6.86603 3.4641 -1
    endloop
  endfacet
  facet normal -1 -0 0
    outer loop
      vertex 6.86603 3.4641 1
      vertex 6.86603 -3.4641 -1
      vertex 6.86603 -3.4641 1
    endloop
  endfacet
  facet normal -0.5 0.866026 0
    outer loop
      vertex 9.86603 5.19615 -1
      vertex 6.86603 3.4641 1
      vertex 9.86603 5.19615 1
    endloop
  endfacet
  facet normal -0.5 0.866026 0
    outer loop
      vertex 6.86603 3.4641 1
      vertex 9.86603 5.19615 -1
      vertex 6.86603 3.4641 -1
    endloop
  endfacet
  facet normal 0.353553 0.612373 -0.707107
    outer loop
      vertex 14.866 3.4641 -3
      vertex 12.866 6.9282 -1
      vertex 18.866 3.4641 -1
    endloop
  endfacet
  facet normal 1 -0 0
    outer loop
      vertex 18.866 -3.4641 1
      vertex 18.866 3.4641 -1
      vertex 18.866 3.4641 1
    endloop
  endfacet
  facet normal 1 0 0
    outer loop
      vertex 18.866 3.4641 -1
      vertex 18.866 -3.4641 1
      vertex 18.866 -3.4641 -1
    endloop
  endfacet
  facet normal 0.5 -0.866026 0
    outer loop
      vertex 12.866 -6.9282 -1
      vertex 18.866 -3.4641 1
      vertex 12.866 -6.9282 1
    endloop
  endfacet
  facet normal 0.5 -0.866026 0
    outer loop
      vertex 18.866 -3.4641 1
      vertex 12.866 -6.9282 -1
      vertex 18.866 -3.4641 -1
    endloop
  endfacet
  facet normal -0.707109 0 0.707105
    outer loop
      vertex 6.86603 3.4641 1
      vertex 6.86603 -3.4641 1
      vertex 8.86602 0 3
    endloop
  endfacet
  facet normal -0.500002 -0.866024 0
    outer loop
      vertex 6.86603 -3.4641 -1
      vertex 12.866 -6.9282 1
      vertex 6.86603 -3.4641 1
    endloop
  endfacet
  facet normal -0.500002 -0.866024 -0
    outer loop
      vertex 12.866 -6.9282 1
      vertex 6.86603 -3.4641 -1
      vertex 12.866 -6.9282 -1
    endloop
  endfacet
  facet normal -0.433015 -0.249999 -0.866024
    outer loop
      vertex 10.866 -3.4641 -3
      vertex 6.86603 -3.4641 -1
      vertex 8.86602 0 -3
    endloop
  endfacet
  facet normal 0 -0.5 -0.866025
    outer loop
      vertex 12.866 -6.9282 -1
      vertex 10.866 -3.4641 -3
      vertex 14.866 -3.4641 -3
    endloop
  endfacet
  facet normal 0.433013 -0.25 -0.866025
    outer loop
      vertex 18.866 -3.4641 -1
      vertex 14.866 -3.4641 -3
      vertex 16.866 0 -3
    endloop
  endfacet
  facet normal -0.433015 0.249999 -0.866024
    outer loop
      vertex 8.86602 0 -3
      vertex 6.86603 3.4641 -1
      vertex 10.866 3.4641 -3
    endloop
  endfacet
  facet normal 0.433013 0.25 -0.866025
    outer loop
      vertex 16.866 0 -3
      vertex 14.866 3.4641 -3
      vertex 18.866 3.4641 -1
    endloop
  endfacet
  facet normal 0.707107 0 -0.707107
    outer loop
      vertex 18.866 -3.4641 -1
      vertex 16.866 0 -3
      vertex 18.866 3.4641 -1
    endloop
  endfacet
  facet normal 0.433013 -0.25 0.866025
    outer loop
      vertex 16.866 0 3
      vertex 14.866 -3.4641 3
      vertex 18.866 -3.4641 1
    endloop
  endfacet
  facet normal 0.353553 -0.612373 0.707107
    outer loop
      vertex 14.866 -3.4641 3
      vertex 12.866 -6.9282 1
      vertex 18.866 -3.4641 1
    endloop
  endfacet
  facet normal -0.707109 0 -0.707105
    outer loop
      vertex 8.86602 0 -3
      vertex 6.86603 -3.4641 -1
      vertex 6.86603 3.4641 -1
    endloop
  endfacet
  facet normal -0.353555 -0.612373 -0.707105
    outer loop
      vertex 12.866 -6.9282 -1
      vertex 6.86603 -3.4641 -1
      vertex 10.866 -3.4641 -3
    endloop
  endfacet
  facet normal -0.353557 0.612373 -0.707104
    outer loop
      vertex 10.866 3.4641 -3
      vertex 9.86603 5.19615 -1
      vertex 12.866 6.9282 -1
    endloop
  endfacet
  facet normal -0.353555 0.612375 -0.707104
    outer loop
      vertex 9.86603 5.19615 -1
      vertex 10.866 3.4641 -3
      vertex 6.86603 3.4641 -1
    endloop
  endfacet
  facet normal 0 0.5 -0.866025
    outer loop
      vertex 14.866 3.4641 -3
      vertex 10.866 3.4641 -3
      vertex 12.866 6.9282 -1
    endloop
  endfacet
  facet normal 0 0 -1
    outer loop
      vertex 14.866 -3.4641 -3
      vertex 14.866 3.4641 -3
      vertex 16.866 0 -3
    endloop
  endfacet
  facet normal 0 0 -1
    outer loop
      vertex 10.866 -3.4641 -3
      vertex 14.866 3.4641 -3
      vertex 14.866 -3.4641 -3
    endloop
  endfacet
  facet normal 0 0 -1
    outer loop
      vertex 10.866 -3.4641 -3
      vertex 10.866 3.4641 -3
      vertex 14.866 3.4641 -3
    endloop
  endfacet
  facet normal 0 -0 -1
    outer loop
      vertex 10.866 3.4641 -3
      vertex 10.866 -3.4641 -3
      vertex 8.86602 0 -3
    endloop
  endfacet
  facet normal 0.707107 0 0.707107
    outer loop
      vertex 18.866 3.4641 1
      vertex 16.866 0 3
      vertex 18.866 -3.4641 1
    endloop
  endfacet
  facet normal -0.353555 -0.612373 0.707105
    outer loop
      vertex 10.866 -3.4641 3
      vertex 6.86603 -3.4641 1
      vertex 12.866 -6.9282 1
    endloop
  endfacet
  facet normal 0 0 1
    outer loop
      vertex 14.866 3.4641 3
      vertex 14.866 -3.4641 3
      vertex 16.866 0 3
    endloop
  endfacet
  facet normal -0 0 1
    outer loop
      vertex 10.866 3.4641 3
      vertex 14.866 -3.4641 3
      vertex 14.866 3.4641 3
    endloop
  endfacet
  facet normal 0 0 1
    outer loop
      vertex 10.866 3.4641 3
      vertex 10.866 -3.4641 3
      vertex 14.866 -3.4641 3
    endloop
  endfacet
  facet normal 0 -0 1
    outer loop
      vertex 10.866 -3.4641 3
      vertex 10.866 3.4641 3
      vertex 8.86602 0 3
    endloop
  endfacet
  facet normal 0.5 -0.866026 0
    outer loop
      vertex 6.86603 3.4641 -1
      vertex 9.86603 5.19615 1
      vertex 6.86603 3.4641 1
    endloop
  endfacet
  facet normal 0.5 -0.866026 0
    outer loop
      vertex 9.86603 5.19615 1
      vertex 6.86603 3.4641 -1
      vertex 9.86603 5.19615 -1
    endloop
  endfacet
  facet normal -0.866027 -0.499998 0
    outer loop
      vertex 6.86603 3.4641 -1
      vertex 6.43302 4.2141 1
      vertex 6.43302 4.2141 -1
    endloop
  endfacet
  facet normal -0.866027 -0.499998 0
    outer loop
      vertex 6.43302 4.2141 1
      vertex 6.86603 3.4641 -1
      vertex 6.86603 3.4641 1
    endloop
  endfacet
  facet normal -0.500001 0.866025 0
    outer loop
      vertex 12.433 7.6782 -1
      vertex 6.43302 4.2141 1
      vertex 12.433 7.6782 1
    endloop
  endfacet
  facet normal -0.500001 0.866025 0
    outer loop
      vertex 6.43302 4.2141 1
      vertex 12.433 7.6782 -1
      vertex 6.43302 4.2141 -1
    endloop
  endfacet
  facet normal 0 0 -1
    outer loop
      vertex 9.86603 5.19615 -1
      vertex 12.433 7.6782 -1
      vertex 12.866 6.9282 -1
    endloop
  endfacet
  facet normal 0 0 -1
    outer loop
      vertex 6.43302 4.2141 -1
      vertex 9.86603 5.19615 -1
      vertex 6.86603 3.4641 -1
    endloop
  endfacet
  facet normal -0 0 -1
    outer loop
      vertex 9.86603 5.19615 -1
      vertex 6.43302 4.2141 -1
      vertex 12.433 7.6782 -1
    endloop
  endfacet
  facet normal 0.866032 0.499989 0
    outer loop
      vertex 12.866 6.9282 1
      vertex 12.433 7.6782 -1
      vertex 12.433 7.6782 1
    endloop
  endfacet
  facet normal 0.866032 0.499989 0
    outer loop
      vertex 12.433 7.6782 -1
      vertex 12.866 6.9282 1
      vertex 12.866 6.9282 -1
    endloop
  endfacet
  facet normal 0 0 1
    outer loop
      vertex 12.433 7.6782 1
      vertex 9.86603 5.19615 1
      vertex 12.866 6.9282 1
    endloop
  endfacet
  facet normal 0 0 1
    outer loop
      vertex 6.43302 4.2141 1
      vertex 9.86603 5.19615 1
      vertex 12.433 7.6782 1
    endloop
  endfacet
  facet normal 0 0 1
    outer loop
      vertex 9.86603 5.19615 1
      vertex 6.43302 4.2141 1
      vertex 6.86603 3.4641 1
    endloop
  endfacet
  facet normal 0 -0.5 0.866025
    outer loop
      vertex 2 -3.4641 3
      vertex -2 -3.4641 3
      vertex 0 -6.9282 1
    endloop
  endfacet
  facet normal -0.353553 0.612373 0.707107
    outer loop
      vertex 0 6.9282 1
      vertex -6 3.4641 1
      vertex -2 3.4641 3
    endloop
  endfacet
  facet normal 0.353553 0.612373 0.707107
    outer loop
      vertex 3 5.19615 1
      vertex 2 3.4641 3
      vertex 6 3.4641 1
    endloop
  endfacet
  facet normal 0.353554 0.612372 0.707107
    outer loop
      vertex 4.81514e-06 6.9282 1
      vertex 2 3.4641 3
      vertex 3 5.19615 1
    endloop
  endfacet
  facet normal 0 0.5 0.866025
    outer loop
      vertex 2 3.4641 3
      vertex 4.81514e-06 6.9282 1
      vertex 0 6.9282 1
    endloop
  endfacet
  facet normal -0.433013 0.25 0.866025
    outer loop
      vertex -2 3.4641 3
      vertex -6 3.4641 1
      vertex -4 0 3
    endloop
  endfacet
  facet normal 0.433013 0.25 0.866025
    outer loop
      vertex 6 3.4641 1
      vertex 2 3.4641 3
      vertex 4 0 3
    endloop
  endfacet
  facet normal 0.5 0.866026 -0
    outer loop
      vertex 6 3.4641 -1
      vertex 3 5.19615 1
      vertex 6 3.4641 1
    endloop
  endfacet
  facet normal 0.5 0.866026 0
    outer loop
      vertex 3 5.19615 1
      vertex 6 3.4641 -1
      vertex 3 5.19615 -1
    endloop
  endfacet
  facet normal 0 1 -0
    outer loop
      vertex 4.81514e-06 6.9282 -1
      vertex 0 6.9282 1
      vertex 4.81514e-06 6.9282 1
    endloop
  endfacet
  facet normal 0 1 0
    outer loop
      vertex 0 6.9282 1
      vertex 4.81514e-06 6.9282 -1
      vertex 0 6.9282 -1
    endloop
  endfacet
  facet normal 0.353553 -0.612373 -0.707107
    outer loop
      vertex 6 -3.4641 -1
      vertex 0 -6.9282 -1
      vertex 2 -3.4641 -3
    endloop
  endfacet
  facet normal 0 0.5 0.866025
    outer loop
      vertex 0 6.9282 1
      vertex -2 3.4641 3
      vertex 2 3.4641 3
    endloop
  endfacet
  facet normal -0.433013 -0.25 0.866025
    outer loop
      vertex -4 0 3
      vertex -6 -3.4641 1
      vertex -2 -3.4641 3
    endloop
  endfacet
  facet normal -1 0 0
    outer loop
      vertex -6 -3.4641 -1
      vertex -6 3.4641 1
      vertex -6 3.4641 -1
    endloop
  endfacet
  facet normal -1 -0 0
    outer loop
      vertex -6 3.4641 1
      vertex -6 -3.4641 -1
      vertex -6 -3.4641 1
    endloop
  endfacet
  facet normal -0.5 0.866026 0
    outer loop
      vertex 0 6.9282 -1
      vertex -6 3.4641 1
      vertex 0 6.9282 1
    endloop
  endfacet
  facet normal -0.5 0.866026 0
    outer loop
      vertex -6 3.4641 1
      vertex 0 6.9282 -1
      vertex -6 3.4641 -1
    endloop
  endfacet
  facet normal 0.353553 0.612373 -0.707107
    outer loop
      vertex 2 3.4641 -3
      vertex 3 5.19615 -1
      vertex 6 3.4641 -1
    endloop
  endfacet
  facet normal 0.353554 0.612372 -0.707107
    outer loop
      vertex 2 3.4641 -3
      vertex 4.81514e-06 6.9282 -1
      vertex 3 5.19615 -1
    endloop
  endfacet
  facet normal 0 0.5 -0.866025
    outer loop
      vertex 4.81514e-06 6.9282 -1
      vertex 2 3.4641 -3
      vertex 0 6.9282 -1
    endloop
  endfacet
  facet normal 0.5 -0.866026 0
    outer loop
      vertex 0 -6.9282 -1
      vertex 6 -3.4641 1
      vertex 0 -6.9282 1
    endloop
  endfacet
  facet normal 0.5 -0.866026 0
    outer loop
      vertex 6 -3.4641 1
      vertex 0 -6.9282 -1
      vertex 6 -3.4641 -1
    endloop
  endfacet
  facet normal -0.707107 0 0.707107
    outer loop
      vertex -6 3.4641 1
      vertex -6 -3.4641 1
      vertex -4 0 3
    endloop
  endfacet
  facet normal -0.5 -0.866026 0
    outer loop
      vertex -6 -3.4641 -1
      vertex 0 -6.9282 1
      vertex -6 -3.4641 1
    endloop
  endfacet
  facet normal -0.5 -0.866026 -0
    outer loop
      vertex 0 -6.9282 1
      vertex -6 -3.4641 -1
      vertex 0 -6.9282 -1
    endloop
  endfacet
  facet normal -0.433013 -0.25 -0.866025
    outer loop
      vertex -2 -3.4641 -3
      vertex -6 -3.4641 -1
      vertex -4 0 -3
    endloop
  endfacet
  facet normal 0 -0.5 -0.866025
    outer loop
      vertex 0 -6.9282 -1
      vertex -2 -3.4641 -3
      vertex 2 -3.4641 -3
    endloop
  endfacet
  facet normal 0.433013 -0.25 -0.866025
    outer loop
      vertex 6 -3.4641 -1
      vertex 2 -3.4641 -3
      vertex 4 0 -3
    endloop
  endfacet
  facet normal -0.433013 0.25 -0.866025
    outer loop
      vertex -4 0 -3
      vertex -6 3.4641 -1
      vertex -2 3.4641 -3
    endloop
  endfacet
  facet normal 0.433013 0.25 -0.866025
    outer loop
      vertex 4 0 -3
      vertex 2 3.4641 -3
      vertex 6 3.4641 -1
    endloop
  endfacet
  facet normal 0.707107 0 -0.707107
    outer loop
      vertex 6 -3.4641 -1
      vertex 4 0 -3
      vertex 6 3.4641 -1
    endloop
  endfacet
  facet normal 0.433013 -0.25 0.866025
    outer loop
      vertex 4 0 3
      vertex 2 -3.4641 3
      vertex 6 -3.4641 1
    endloop
  endfacet
  facet normal 0.353553 -0.612373 0.707107
    outer loop
      vertex 2 -3.4641 3
      vertex 0 -6.9282 1
      vertex 6 -3.4641 1
    endloop
  endfacet
  facet normal -0.707107 0 -0.707107
    outer loop
      vertex -4 0 -3
      vertex -6 -3.4641 -1
      vertex -6 3.4641 -1
    endloop
  endfacet
  facet normal -0.353553 -0.612373 -0.707107
    outer loop
      vertex 0 -6.9282 -1
      vertex -6 -3.4641 -1
      vertex -2 -3.4641 -3
    endloop
  endfacet
  facet normal -0.353553 0.612373 -0.707107
    outer loop
      vertex -2 3.4641 -3
      vertex -6 3.4641 -1
      vertex 0 6.9282 -1
    endloop
  endfacet
  facet normal 0 0.5 -0.866025
    outer loop
      vertex 2 3.4641 -3
      vertex -2 3.4641 -3
      vertex 0 6.9282 -1
    endloop
  endfacet
  facet normal 0 0 -1
    outer loop
      vertex 2 -3.4641 -3
      vertex 2 3.4641 -3
      vertex 4 0 -3
    endloop
  endfacet
  facet normal 0 0 -1
    outer loop
      vertex -2 -3.4641 -3
      vertex 2 3.4641 -3
      vertex 2 -3.4641 -3
    endloop
  endfacet
  facet normal 0 0 -1
    outer loop
      vertex -2 -3.4641 -3
      vertex -2 3.4641 -3
      vertex 2 3.4641 -3
    endloop
  endfacet
  facet normal 0 -0 -1
    outer loop
      vertex -2 3.4641 -3
      vertex -2 -3.4641 -3
      vertex -4 0 -3
    endloop
  endfacet
  facet normal 0.707107 0 0.707107
    outer loop
      vertex 4 0 3
      vertex 6 -3.4641 1
      vertex 6 3.4641 1
    endloop
  endfacet
  facet normal -0.353553 -0.612373 0.707107
    outer loop
      vertex -2 -3.4641 3
      vertex -6 -3.4641 1
      vertex 0 -6.9282 1
    endloop
  endfacet
  facet normal 0 0 1
    outer loop
      vertex 2 3.4641 3
      vertex 2 -3.4641 3
      vertex 4 0 3
    endloop
  endfacet
  facet normal -0 0 1
    outer loop
      vertex -2 3.4641 3
      vertex 2 -3.4641 3
      vertex 2 3.4641 3
    endloop
  endfacet
  facet normal 0 0 1
    outer loop
      vertex -2 3.4641 3
      vertex -2 -3.4641 3
      vertex 2 -3.4641 3
    endloop
  endfacet
  facet normal 0 -0 1
    outer loop
      vertex -2 -3.4641 3
      vertex -2 3.4641 3
      vertex -4 0 3
    endloop
  endfacet
  facet normal 0 1 -0
    outer loop
      vertex 6.86602 3.4641 -1
      vertex 6 3.4641 1
      vertex 6.86602 3.4641 1
    endloop
  endfacet
  facet normal 0 1 0
    outer loop
      vertex 6 3.4641 1
      vertex 6.86602 3.4641 -1
      vertex 6 3.4641 -1
    endloop
  endfacet
  facet normal 0 0 -1
    outer loop
      vertex 6 -3.4641 -1
      vertex 6.86602 3.4641 -1
      vertex 6.86602 -3.4641 -1
    endloop
  endfacet
  facet normal -0 0 -1
    outer loop
      vertex 6.86602 3.4641 -1
      vertex 6 -3.4641 -1
      vertex 6 3.4641 -1
    endloop
  endfacet
  facet normal 1 -0 0
    outer loop
      vertex 6.86602 -3.4641 1
      vertex 6.86602 3.4641 -1
      vertex 6.86602 3.4641 1
    endloop
  endfacet
  facet normal 1 0 0
    outer loop
      vertex 6.86602 3.4641 -1
      vertex 6.86602 -3.4641 1
      vertex 6.86602 -3.4641 -1
    endloop
  endfacet
  facet normal 0 -1 0
    outer loop
      vertex 6 -3.4641 -1
      vertex 6.86602 -3.4641 1
      vertex 6 -3.4641 1
    endloop
  endfacet
  facet normal 0 -1 -0
    outer loop
      vertex 6.86602 -3.4641 1
      vertex 6 -3.4641 -1
      vertex 6.86602 -3.4641 -1
    endloop
  endfacet
  facet normal -0 0 1
    outer loop
      vertex 6 3.4641 1
      vertex 6.86602 -3.4641 1
      vertex 6.86602 3.4641 1
    endloop
  endfacet
  facet normal 0 0 1
    outer loop
      vertex 6.86602 -3.4641 1
      vertex 6 3.4641 1
      vertex 6 -3.4641 1
    endloop
  endfacet
  facet normal -0.500001 -0.866025 0
    outer loop
      vertex 3 5.19615 -1
      vertex 5.99999 3.4641 1
      vertex 3 5.19615 1
    endloop
  endfacet
  facet normal -0.500001 -0.866025 -0
    outer loop
      vertex 5.99999 3.4641 1
      vertex 3 5.19615 -1
      vertex 5.99999 3.4641 -1
    endloop
  endfacet
  facet normal -0.866026 0.5 0
    outer loop
      vertex 4.81514e-06 6.9282 -1
      vertex 0.433017 7.6782 1
      vertex 0.433017 7.6782 -1
    endloop
  endfacet
  facet normal -0.866026 0.5 0
    outer loop
      vertex 0.433017 7.6782 1
      vertex 4.81514e-06 6.9282 -1
      vertex 4.81514e-06 6.9282 1
    endloop
  endfacet
  facet normal 0.500001 0.866025 -0
    outer loop
      vertex 3.43301 5.94615 -1
      vertex 0.433017 7.6782 1
      vertex 3.43301 5.94615 1
    endloop
  endfacet
  facet normal 0.500001 0.866025 0
    outer loop
      vertex 0.433017 7.6782 1
      vertex 3.43301 5.94615 -1
      vertex 0.433017 7.6782 -1
    endloop
  endfacet
  facet normal 0.866022 -0.500006 0
    outer loop
      vertex 5.99999 3.4641 1
      vertex 6.43301 4.2141 -1
      vertex 6.43301 4.2141 1
    endloop
  endfacet
  facet normal 0.866022 -0.500006 0
    outer loop
      vertex 6.43301 4.2141 -1
      vertex 5.99999 3.4641 1
      vertex 5.99999 3.4641 -1
    endloop
  endfacet
  facet normal 0 0 -1
    outer loop
      vertex 5.99999 3.4641 -1
      vertex 3.43301 5.94615 -1
      vertex 6.43301 4.2141 -1
    endloop
  endfacet
  facet normal 0 0 -1
    outer loop
      vertex 3 5.19615 -1
      vertex 3.43301 5.94615 -1
      vertex 5.99999 3.4641 -1
    endloop
  endfacet
  facet normal 0 0 -1
    outer loop
      vertex 3 5.19615 -1
      vertex 0.433017 7.6782 -1
      vertex 3.43301 5.94615 -1
    endloop
  endfacet
  facet normal 0 -0 -1
    outer loop
      vertex 0.433017 7.6782 -1
      vertex 3 5.19615 -1
      vertex 4.81514e-06 6.9282 -1
    endloop
  endfacet
  facet normal 0 0 1
    outer loop
      vertex 3.43301 5.94615 1
      vertex 5.99999 3.4641 1
      vertex 6.43301 4.2141 1
    endloop
  endfacet
  facet normal 0 0 1
    outer loop
      vertex 3.43301 5.94615 1
      vertex 3 5.19615 1
      vertex 5.99999 3.4641 1
    endloop
  endfacet
  facet normal 0 0 1
    outer loop
      vertex 0.433017 7.6782 1
      vertex 3 5.19615 1
      vertex 3.43301 5.94615 1
    endloop
  endfacet
  facet normal 0 0 1
    outer loop
      vertex 3 5.19615 1
      vertex 0.433017 7.6782 1
      vertex 4.81514e-06 6.9282 1
    endloop
  endfacet
  facet normal -0.866027 0.499998 0
    outer loop
      vertex 6 3.4641 -1
      vertex 6.43301 4.2141 1
      vertex 6.43301 4.2141 -1
    endloop
  endfacet
  facet normal -0.866027 0.499998 0
    outer loop
      vertex 6.43301 4.2141 1
      vertex 6 3.4641 -1
      vertex 6 3.4641 1
    endloop
  endfacet
  facet normal 0.866027 0.499998 0
    outer loop
      vertex 6.86602 3.4641 1
      vertex 6.43301 4.2141 -1
      vertex 6.43301 4.2141 1
    endloop
  endfacet
  facet normal 0.866027 0.499998 0
    outer loop
      vertex 6.43301 4.2141 -1
      vertex 6.86602 3.4641 1
      vertex 6.86602 3.4641 -1
    endloop
  endfacet
  facet normal 0 0 1
    outer loop
      vertex 6.43301 4.2141 1
      vertex 6 3.4641 1
      vertex 6.86602 3.4641 1
    endloop
  endfacet
  facet normal 0 -1 0
    outer loop
      vertex 6 3.4641 -1
      vertex 6.86602 3.4641 1
      vertex 6 3.4641 1
    endloop
  endfacet
  facet normal 0 -1 -0
    outer loop
      vertex 6.86602 3.4641 1
      vertex 6 3.4641 -1
      vertex 6.86602 3.4641 -1
    endloop
  endfacet
  facet normal 0 0 -1
    outer loop
      vertex 6.86602 3.4641 -1
      vertex 6 3.4641 -1
      vertex 6.43301 4.2141 -1
    endloop
  endfacet
  facet normal -0.5 0.866025 0
    outer loop
      vertex 6.43301 18.0705 -1
      vertex 0.433012 14.6064 1
      vertex 6.43301 18.0705 1
    endloop
  endfacet
  facet normal -0.5 0.866025 0
    outer loop
      vertex 0.433012 14.6064 1
      vertex 6.43301 18.0705 -1
      vertex 0.433012 14.6064 -1
    endloop
  endfacet
  facet normal 0.353554 -0.612373 -0.707106
    outer loop
      vertex 12.433 7.6782 -1
      vertex 6.43301 4.2141 -1
      vertex 8.43301 7.6782 -3
    endloop
  endfacet
  facet normal -0.433013 0.25 0.866025
    outer loop
      vertex 4.43301 14.6064 3
      vertex 0.433012 14.6064 1
      vertex 2.43301 11.1423 3
    endloop
  endfacet
  facet normal 0.433014 0.249999 -0.866025
    outer loop
      vertex 10.433 11.1423 -3
      vertex 8.43301 14.6064 -3
      vertex 12.433 14.6064 -1
    endloop
  endfacet
  facet normal 0.433014 0.249999 0.866025
    outer loop
      vertex 12.433 14.6064 1
      vertex 8.43301 14.6064 3
      vertex 10.433 11.1423 3
    endloop
  endfacet
  facet normal 0.353554 0.612373 0.707106
    outer loop
      vertex 12.433 14.6064 1
      vertex 6.43301 18.0705 1
      vertex 8.43301 14.6064 3
    endloop
  endfacet
  facet normal 0 -0.5 -0.866025
    outer loop
      vertex 6.43301 4.2141 -1
      vertex 4.43301 7.6782 -3
      vertex 8.43301 7.6782 -3
    endloop
  endfacet
  facet normal -0.353553 0.612373 0.707107
    outer loop
      vertex 6.43301 18.0705 1
      vertex 0.433012 14.6064 1
      vertex 4.43301 14.6064 3
    endloop
  endfacet
  facet normal 0.433014 -0.249999 0.866025
    outer loop
      vertex 10.433 11.1423 3
      vertex 8.43301 7.6782 3
      vertex 12.433 7.6782 1
    endloop
  endfacet
  facet normal -0.433013 -0.25 0.866025
    outer loop
      vertex 2.43301 11.1423 3
      vertex 0.433012 7.6782 1
      vertex 4.43301 7.6782 3
    endloop
  endfacet
  facet normal 0 -0.5 0.866025
    outer loop
      vertex 8.43301 7.6782 3
      vertex 4.43301 7.6782 3
      vertex 6.43301 4.2141 1
    endloop
  endfacet
  facet normal 0.433014 -0.249999 -0.866025
    outer loop
      vertex 12.433 7.6782 -1
      vertex 8.43301 7.6782 -3
      vertex 10.433 11.1423 -3
    endloop
  endfacet
  facet normal -0.707107 0 0.707106
    outer loop
      vertex 0.433012 14.6064 1
      vertex 0.433012 7.6782 1
      vertex 2.43301 11.1423 3
    endloop
  endfacet
  facet normal -1 0 0
    outer loop
      vertex 0.433012 7.6782 -1
      vertex 0.433012 14.6064 1
      vertex 0.433012 14.6064 -1
    endloop
  endfacet
  facet normal -1 -0 0
    outer loop
      vertex 0.433012 14.6064 1
      vertex 0.433012 7.6782 -1
      vertex 0.433012 7.6782 1
    endloop
  endfacet
  facet normal 0 0.5 0.866025
    outer loop
      vertex 6.43301 18.0705 1
      vertex 4.43301 14.6064 3
      vertex 8.43301 14.6064 3
    endloop
  endfacet
  facet normal -0.707107 0 -0.707106
    outer loop
      vertex 2.43301 11.1423 -3
      vertex 0.433012 7.6782 -1
      vertex 0.433012 14.6064 -1
    endloop
  endfacet
  facet normal 0.707107 0 -0.707107
    outer loop
      vertex 12.433 7.6782 -1
      vertex 10.433 11.1423 -3
      vertex 12.433 14.6064 -1
    endloop
  endfacet
  facet normal 1 -0 0
    outer loop
      vertex 12.433 7.6782 1
      vertex 12.433 14.6064 -1
      vertex 12.433 14.6064 1
    endloop
  endfacet
  facet normal 1 0 0
    outer loop
      vertex 12.433 14.6064 -1
      vertex 12.433 7.6782 1
      vertex 12.433 7.6782 -1
    endloop
  endfacet
  facet normal 0.5 -0.866025 0
    outer loop
      vertex 6.43301 4.2141 -1
      vertex 12.433 7.6782 1
      vertex 6.43301 4.2141 1
    endloop
  endfacet
  facet normal 0.5 -0.866025 0
    outer loop
      vertex 12.433 7.6782 1
      vertex 6.43301 4.2141 -1
      vertex 12.433 7.6782 -1
    endloop
  endfacet
  facet normal 0.5 0.866025 -0
    outer loop
      vertex 12.433 14.6064 -1
      vertex 6.43301 18.0705 1
      vertex 12.433 14.6064 1
    endloop
  endfacet
  facet normal 0.5 0.866025 0
    outer loop
      vertex 6.43301 18.0705 1
      vertex 12.433 14.6064 -1
      vertex 6.43301 18.0705 -1
    endloop
  endfacet
  facet normal 0.353554 0.612373 -0.707106
    outer loop
      vertex 8.43301 14.6064 -3
      vertex 6.43301 18.0705 -1
      vertex 12.433 14.6064 -1
    endloop
  endfacet
  facet normal 0.353554 -0.612373 0.707106
    outer loop
      vertex 8.43301 7.6782 3
      vertex 6.43301 4.2141 1
      vertex 12.433 7.6782 1
    endloop
  endfacet
  facet normal 0 0 1
    outer loop
      vertex 8.43301 14.6064 3
      vertex 8.43301 7.6782 3
      vertex 10.433 11.1423 3
    endloop
  endfacet
  facet normal -0 0 1
    outer loop
      vertex 4.43301 14.6064 3
      vertex 8.43301 7.6782 3
      vertex 8.43301 14.6064 3
    endloop
  endfacet
  facet normal 0 0 1
    outer loop
      vertex 4.43301 14.6064 3
      vertex 4.43301 7.6782 3
      vertex 8.43301 7.6782 3
    endloop
  endfacet
  facet normal 0 -0 1
    outer loop
      vertex 4.43301 7.6782 3
      vertex 4.43301 14.6064 3
      vertex 2.43301 11.1423 3
    endloop
  endfacet
  facet normal -0.353553 -0.612373 0.707107
    outer loop
      vertex 4.43301 7.6782 3
      vertex 3.43301 5.94615 1
      vertex 6.43301 4.2141 1
    endloop
  endfacet
  facet normal -0.353554 -0.612373 0.707107
    outer loop
      vertex 3.43301 5.94615 1
      vertex 4.43301 7.6782 3
      vertex 0.433012 7.6782 1
    endloop
  endfacet
  facet normal -0.5 -0.866025 0
    outer loop
      vertex 0.433012 7.6782 -1
      vertex 3.43301 5.94615 1
      vertex 0.433012 7.6782 1
    endloop
  endfacet
  facet normal -0.5 -0.866025 -0
    outer loop
      vertex 3.43301 5.94615 1
      vertex 0.433012 7.6782 -1
      vertex 3.43301 5.94615 -1
    endloop
  endfacet
  facet normal 0.707107 0 0.707107
    outer loop
      vertex 12.433 14.6064 1
      vertex 10.433 11.1423 3
      vertex 12.433 7.6782 1
    endloop
  endfacet
  facet normal -0.433013 0.25 -0.866025
    outer loop
      vertex 2.43301 11.1423 -3
      vertex 0.433012 14.6064 -1
      vertex 4.43301 14.6064 -3
    endloop
  endfacet
  facet normal -0.353553 0.612373 -0.707107
    outer loop
      vertex 4.43301 14.6064 -3
      vertex 0.433012 14.6064 -1
      vertex 6.43301 18.0705 -1
    endloop
  endfacet
  facet normal 0 0.5 -0.866025
    outer loop
      vertex 8.43301 14.6064 -3
      vertex 4.43301 14.6064 -3
      vertex 6.43301 18.0705 -1
    endloop
  endfacet
  facet normal -0.353553 -0.612373 -0.707107
    outer loop
      vertex 3.43301 5.94615 -1
      vertex 4.43301 7.6782 -3
      vertex 6.43301 4.2141 -1
    endloop
  endfacet
  facet normal -0.353554 -0.612373 -0.707107
    outer loop
      vertex 4.43301 7.6782 -3
      vertex 3.43301 5.94615 -1
      vertex 0.433012 7.6782 -1
    endloop
  endfacet
  facet normal -0.433013 -0.25 -0.866025
    outer loop
      vertex 4.43301 7.6782 -3
      vertex 0.433012 7.6782 -1
      vertex 2.43301 11.1423 -3
    endloop
  endfacet
  facet normal 0 0 -1
    outer loop
      vertex 8.43301 7.6782 -3
      vertex 8.43301 14.6064 -3
      vertex 10.433 11.1423 -3
    endloop
  endfacet
  facet normal 0 0 -1
    outer loop
      vertex 4.43301 7.6782 -3
      vertex 8.43301 14.6064 -3
      vertex 8.43301 7.6782 -3
    endloop
  endfacet
  facet normal 0 0 -1
    outer loop
      vertex 4.43301 7.6782 -3
      vertex 4.43301 14.6064 -3
      vertex 8.43301 14.6064 -3
    endloop
  endfacet
  facet normal 0 -0 -1
    outer loop
      vertex 4.43301 14.6064 -3
      vertex 4.43301 7.6782 -3
      vertex 2.43301 11.1423 -3
    endloop
  endfacet
endsolid OpenSCAD_Model
