solid OpenSCAD_Model
  facet normal 0 -0.5 0.866025
    outer loop
      vertex 34.1651 7.6782 3
      vertex 30.1651 7.6782 3
      vertex 32.1651 4.2141 1
    endloop
  endfacet
  facet normal -0.353553 0.612373 0.707107
    outer loop
      vertex 32.1651 18.0705 1
      vertex 26.1651 14.6064 1
      vertex 30.1651 14.6064 3
    endloop
  endfacet
  facet normal 0.353553 0.612373 0.707107
    outer loop
      vertex 38.1651 14.6064 1
      vertex 32.1651 18.0705 1
      vertex 34.1651 14.6064 3
    endloop
  endfacet
  facet normal -0.433013 0.25 0.866025
    outer loop
      vertex 30.1651 14.6064 3
      vertex 26.1651 14.6064 1
      vertex 28.1651 11.1423 3
    endloop
  endfacet
  facet normal 0.433013 0.25 0.866025
    outer loop
      vertex 38.1651 14.6064 1
      vertex 34.1651 14.6064 3
      vertex 36.1651 11.1423 3
    endloop
  endfacet
  facet normal 0.5 0.866026 -0
    outer loop
      vertex 38.1651 14.6064 -1
      vertex 32.1651 18.0705 1
      vertex 38.1651 14.6064 1
    endloop
  endfacet
  facet normal 0.5 0.866026 0
    outer loop
      vertex 32.1651 18.0705 1
      vertex 38.1651 14.6064 -1
      vertex 32.1651 18.0705 -1
    endloop
  endfacet
  facet normal 0.353553 -0.612373 -0.707107
    outer loop
      vertex 38.1651 7.6782 -1
      vertex 32.1651 4.2141 -1
      vertex 34.1651 7.6782 -3
    endloop
  endfacet
  facet normal 0 0.5 0.866025
    outer loop
      vertex 32.1651 18.0705 1
      vertex 30.1651 14.6064 3
      vertex 34.1651 14.6064 3
    endloop
  endfacet
  facet normal -0.433013 -0.25 0.866025
    outer loop
      vertex 28.1651 11.1423 3
      vertex 26.1651 7.6782 1
      vertex 30.1651 7.6782 3
    endloop
  endfacet
  facet normal -1 0 0
    outer loop
      vertex 26.1651 7.6782 -1
      vertex 26.1651 14.6064 1
      vertex 26.1651 14.6064 -1
    endloop
  endfacet
  facet normal -1 -0 0
    outer loop
      vertex 26.1651 14.6064 1
      vertex 26.1651 7.6782 -1
      vertex 26.1651 7.6782 1
    endloop
  endfacet
  facet normal -0.5 0.866026 0
    outer loop
      vertex 32.1651 18.0705 -1
      vertex 26.1651 14.6064 1
      vertex 32.1651 18.0705 1
    endloop
  endfacet
  facet normal -0.5 0.866026 0
    outer loop
      vertex 26.1651 14.6064 1
      vertex 32.1651 18.0705 -1
      vertex 26.1651 14.6064 -1
    endloop
  endfacet
  facet normal 0.353553 0.612373 -0.707107
    outer loop
      vertex 34.1651 14.6064 -3
      vertex 32.1651 18.0705 -1
      vertex 38.1651 14.6064 -1
    endloop
  endfacet
  facet normal 1 -0 0
    outer loop
      vertex 38.1651 7.6782 1
      vertex 38.1651 7.67821 -1
      vertex 38.1651 7.67821 1
    endloop
  endfacet
  facet normal 1 0 0
    outer loop
      vertex 38.1651 7.67821 -1
      vertex 38.1651 7.6782 1
      vertex 38.1651 7.6782 -1
    endloop
  endfacet
  facet normal 0.5 -0.866026 0
    outer loop
      vertex 32.1651 4.2141 -1
      vertex 38.1651 7.6782 1
      vertex 32.1651 4.2141 1
    endloop
  endfacet
  facet normal 0.5 -0.866026 0
    outer loop
      vertex 38.1651 7.6782 1
      vertex 32.1651 4.2141 -1
      vertex 38.1651 7.6782 -1
    endloop
  endfacet
  facet normal -0.707107 0 0.707107
    outer loop
      vertex 26.1651 14.6064 1
      vertex 26.1651 7.6782 1
      vertex 28.1651 11.1423 3
    endloop
  endfacet
  facet normal -0.5 -0.866026 0
    outer loop
      vertex 26.1651 7.6782 -1
      vertex 32.1651 4.2141 1
      vertex 26.1651 7.6782 1
    endloop
  endfacet
  facet normal -0.5 -0.866026 -0
    outer loop
      vertex 32.1651 4.2141 1
      vertex 26.1651 7.6782 -1
      vertex 32.1651 4.2141 -1
    endloop
  endfacet
  facet normal -0.433013 -0.25 -0.866025
    outer loop
      vertex 30.1651 7.6782 -3
      vertex 26.1651 7.6782 -1
      vertex 28.1651 11.1423 -3
    endloop
  endfacet
  facet normal 0 -0.5 -0.866025
    outer loop
      vertex 32.1651 4.2141 -1
      vertex 30.1651 7.6782 -3
      vertex 34.1651 7.6782 -3
    endloop
  endfacet
  facet normal 0.433013 -0.25 -0.866025
    outer loop
      vertex 38.1651 7.6782 -1
      vertex 34.1651 7.6782 -3
      vertex 36.1651 11.1423 -3
    endloop
  endfacet
  facet normal -0.433013 0.25 -0.866025
    outer loop
      vertex 28.1651 11.1423 -3
      vertex 26.1651 14.6064 -1
      vertex 30.1651 14.6064 -3
    endloop
  endfacet
  facet normal 0.433013 0.25 -0.866025
    outer loop
      vertex 36.1651 11.1423 -3
      vertex 34.1651 14.6064 -3
      vertex 38.1651 14.6064 -1
    endloop
  endfacet
  facet normal 0.707107 0 -0.707107
    outer loop
      vertex 38.1651 7.67821 -1
      vertex 36.1651 11.1423 -3
      vertex 38.1651 14.6064 -1
    endloop
  endfacet
  facet normal 0.707107 0 -0.707107
    outer loop
      vertex 36.1651 11.1423 -3
      vertex 38.1651 7.67821 -1
      vertex 38.1651 7.6782 -1
    endloop
  endfacet
  facet normal 0.433013 -0.25 0.866025
    outer loop
      vertex 36.1651 11.1423 3
      vertex 34.1651 7.6782 3
      vertex 38.1651 7.6782 1
    endloop
  endfacet
  facet normal 0.353553 -0.612373 0.707107
    outer loop
      vertex 34.1651 7.6782 3
      vertex 32.1651 4.2141 1
      vertex 38.1651 7.6782 1
    endloop
  endfacet
  facet normal -0.707107 0 -0.707107
    outer loop
      vertex 28.1651 11.1423 -3
      vertex 26.1651 7.6782 -1
      vertex 26.1651 14.6064 -1
    endloop
  endfacet
  facet normal -0.353553 -0.612373 -0.707107
    outer loop
      vertex 32.1651 4.2141 -1
      vertex 26.1651 7.6782 -1
      vertex 30.1651 7.6782 -3
    endloop
  endfacet
  facet normal -0.353553 0.612373 -0.707107
    outer loop
      vertex 30.1651 14.6064 -3
      vertex 26.1651 14.6064 -1
      vertex 32.1651 18.0705 -1
    endloop
  endfacet
  facet normal 0 0.5 -0.866025
    outer loop
      vertex 34.1651 14.6064 -3
      vertex 30.1651 14.6064 -3
      vertex 32.1651 18.0705 -1
    endloop
  endfacet
  facet normal 0 0 -1
    outer loop
      vertex 34.1651 7.6782 -3
      vertex 34.1651 14.6064 -3
      vertex 36.1651 11.1423 -3
    endloop
  endfacet
  facet normal 0 0 -1
    outer loop
      vertex 30.1651 7.6782 -3
      vertex 34.1651 14.6064 -3
      vertex 34.1651 7.6782 -3
    endloop
  endfacet
  facet normal 0 0 -1
    outer loop
      vertex 30.1651 7.6782 -3
      vertex 30.1651 14.6064 -3
      vertex 34.1651 14.6064 -3
    endloop
  endfacet
  facet normal 0 -0 -1
    outer loop
      vertex 30.1651 14.6064 -3
      vertex 30.1651 7.6782 -3
      vertex 28.1651 11.1423 -3
    endloop
  endfacet
  facet normal 0.707107 0 0.707107
    outer loop
      vertex 36.1651 11.1423 3
      vertex 38.1651 7.67821 1
      vertex 38.1651 14.6064 1
    endloop
  endfacet
  facet normal 0.707107 0 0.707107
    outer loop
      vertex 38.1651 7.67821 1
      vertex 36.1651 11.1423 3
      vertex 38.1651 7.6782 1
    endloop
  endfacet
  facet normal -0.353553 -0.612373 0.707107
    outer loop
      vertex 30.1651 7.6782 3
      vertex 26.1651 7.6782 1
      vertex 32.1651 4.2141 1
    endloop
  endfacet
  facet normal 0 0 1
    outer loop
      vertex 34.1651 14.6064 3
      vertex 34.1651 7.6782 3
      vertex 36.1651 11.1423 3
    endloop
  endfacet
  facet normal -0 0 1
    outer loop
      vertex 30.1651 14.6064 3
      vertex 34.1651 7.6782 3
      vertex 34.1651 14.6064 3
    endloop
  endfacet
  facet normal 0 0 1
    outer loop
      vertex 30.1651 14.6064 3
      vertex 30.1651 7.6782 3
      vertex 34.1651 7.6782 3
    endloop
  endfacet
  facet normal 0 -0 1
    outer loop
      vertex 30.1651 7.6782 3
      vertex 30.1651 14.6064 3
      vertex 28.1651 11.1423 3
    endloop
  endfacet
  facet normal 0 1 -0
    outer loop
      vertex 39.0311 14.6064 -1
      vertex 38.1651 14.6064 1
      vertex 39.0311 14.6064 1
    endloop
  endfacet
  facet normal 0 1 0
    outer loop
      vertex 38.1651 14.6064 1
      vertex 39.0311 14.6064 -1
      vertex 38.1651 14.6064 -1
    endloop
  endfacet
  facet normal 0 0 -1
    outer loop
      vertex 38.1651 7.67821 -1
      vertex 39.0311 14.6064 -1
      vertex 39.0311 7.67821 -1
    endloop
  endfacet
  facet normal -0 0 -1
    outer loop
      vertex 39.0311 14.6064 -1
      vertex 38.1651 7.67821 -1
      vertex 38.1651 14.6064 -1
    endloop
  endfacet
  facet normal -1 0 0
    outer loop
      vertex 39.0311 7.6782 -1
      vertex 39.0311 7.67821 1
      vertex 39.0311 7.67821 -1
    endloop
  endfacet
  facet normal -1 -0 0
    outer loop
      vertex 39.0311 7.67821 1
      vertex 39.0311 7.6782 -1
      vertex 39.0311 7.6782 1
    endloop
  endfacet
  facet normal 0 -1 0
    outer loop
      vertex 38.1651 7.67821 -1
      vertex 39.0311 7.67821 1
      vertex 38.1651 7.67821 1
    endloop
  endfacet
  facet normal 0 -1 -0
    outer loop
      vertex 39.0311 7.67821 1
      vertex 38.1651 7.67821 -1
      vertex 39.0311 7.67821 -1
    endloop
  endfacet
  facet normal -0 0 1
    outer loop
      vertex 38.1651 14.6064 1
      vertex 39.0311 7.67821 1
      vertex 39.0311 14.6064 1
    endloop
  endfacet
  facet normal 0 0 1
    outer loop
      vertex 39.0311 7.67821 1
      vertex 38.1651 14.6064 1
      vertex 38.1651 7.67821 1
    endloop
  endfacet
  facet normal 0 -0.5 0.866025
    outer loop
      vertex 47.0311 7.6782 3
      vertex 43.0311 7.6782 3
      vertex 45.0311 4.2141 1
    endloop
  endfacet
  facet normal -0.353553 0.612373 0.707107
    outer loop
      vertex 45.0311 18.0705 1
      vertex 39.0311 14.6064 1
      vertex 43.0311 14.6064 3
    endloop
  endfacet
  facet normal 0.353553 0.612373 0.707107
    outer loop
      vertex 51.0311 14.6064 1
      vertex 45.0311 18.0705 1
      vertex 47.0311 14.6064 3
    endloop
  endfacet
  facet normal -0.433013 0.25 0.866025
    outer loop
      vertex 43.0311 14.6064 3
      vertex 39.0311 14.6064 1
      vertex 41.0311 11.1423 3
    endloop
  endfacet
  facet normal 0.433013 0.25 0.866025
    outer loop
      vertex 51.0311 14.6064 1
      vertex 47.0311 14.6064 3
      vertex 49.0311 11.1423 3
    endloop
  endfacet
  facet normal 0.5 0.866026 -0
    outer loop
      vertex 51.0311 14.6064 -1
      vertex 45.0311 18.0705 1
      vertex 51.0311 14.6064 1
    endloop
  endfacet
  facet normal 0.5 0.866026 0
    outer loop
      vertex 45.0311 18.0705 1
      vertex 51.0311 14.6064 -1
      vertex 45.0311 18.0705 -1
    endloop
  endfacet
  facet normal 0.353553 -0.612373 -0.707107
    outer loop
      vertex 51.0311 7.6782 -1
      vertex 45.0311 4.2141 -1
      vertex 47.0311 7.6782 -3
    endloop
  endfacet
  facet normal 0 0.5 0.866025
    outer loop
      vertex 45.0311 18.0705 1
      vertex 43.0311 14.6064 3
      vertex 47.0311 14.6064 3
    endloop
  endfacet
  facet normal -0.433013 -0.25 0.866025
    outer loop
      vertex 41.0311 11.1423 3
      vertex 39.0311 7.6782 1
      vertex 43.0311 7.6782 3
    endloop
  endfacet
  facet normal 0 0 1
    outer loop
      vertex 47.0311 14.6064 3
      vertex 47.0311 7.6782 3
      vertex 49.0311 11.1423 3
    endloop
  endfacet
  facet normal -0 0 1
    outer loop
      vertex 43.0311 14.6064 3
      vertex 47.0311 7.6782 3
      vertex 47.0311 14.6064 3
    endloop
  endfacet
  facet normal 0 0 1
    outer loop
      vertex 43.0311 14.6064 3
      vertex 43.0311 7.6782 3
      vertex 47.0311 7.6782 3
    endloop
  endfacet
  facet normal 0 -0 1
    outer loop
      vertex 43.0311 7.6782 3
      vertex 43.0311 14.6064 3
      vertex 41.0311 11.1423 3
    endloop
  endfacet
  facet normal -0.5 0.866026 0
    outer loop
      vertex 45.0311 18.0705 -1
      vertex 39.0311 14.6064 1
      vertex 45.0311 18.0705 1
    endloop
  endfacet
  facet normal -0.5 0.866026 0
    outer loop
      vertex 39.0311 14.6064 1
      vertex 45.0311 18.0705 -1
      vertex 39.0311 14.6064 -1
    endloop
  endfacet
  facet normal 0.353553 0.612373 -0.707107
    outer loop
      vertex 47.0311 14.6064 -3
      vertex 45.0311 18.0705 -1
      vertex 51.0311 14.6064 -1
    endloop
  endfacet
  facet normal 1 -0 0
    outer loop
      vertex 51.0311 7.6782 1
      vertex 51.0311 14.6064 -1
      vertex 51.0311 14.6064 1
    endloop
  endfacet
  facet normal 1 0 0
    outer loop
      vertex 51.0311 14.6064 -1
      vertex 51.0311 7.6782 1
      vertex 51.0311 7.6782 -1
    endloop
  endfacet
  facet normal 0.5 -0.866026 0
    outer loop
      vertex 45.0311 4.2141 -1
      vertex 51.0311 7.6782 1
      vertex 45.0311 4.2141 1
    endloop
  endfacet
  facet normal 0.5 -0.866026 0
    outer loop
      vertex 51.0311 7.6782 1
      vertex 45.0311 4.2141 -1
      vertex 51.0311 7.6782 -1
    endloop
  endfacet
  facet normal -0.707107 0 0.707107
    outer loop
      vertex 39.0311 7.67821 1
      vertex 41.0311 11.1423 3
      vertex 39.0311 14.6064 1
    endloop
  endfacet
  facet normal -0.707107 0 0.707107
    outer loop
      vertex 41.0311 11.1423 3
      vertex 39.0311 7.67821 1
      vertex 39.0311 7.6782 1
    endloop
  endfacet
  facet normal -0.707107 0 -0.707107
    outer loop
      vertex 41.0311 11.1423 -3
      vertex 39.0311 7.67821 -1
      vertex 39.0311 14.6064 -1
    endloop
  endfacet
  facet normal -0.707107 -0 -0.707107
    outer loop
      vertex 39.0311 7.67821 -1
      vertex 41.0311 11.1423 -3
      vertex 39.0311 7.6782 -1
    endloop
  endfacet
  facet normal -0.5 -0.866026 0
    outer loop
      vertex 39.0311 7.6782 -1
      vertex 45.0311 4.2141 1
      vertex 39.0311 7.6782 1
    endloop
  endfacet
  facet normal -0.5 -0.866026 -0
    outer loop
      vertex 45.0311 4.2141 1
      vertex 39.0311 7.6782 -1
      vertex 45.0311 4.2141 -1
    endloop
  endfacet
  facet normal 0 -0.5 -0.866025
    outer loop
      vertex 45.0311 4.2141 -1
      vertex 43.0311 7.6782 -3
      vertex 47.0311 7.6782 -3
    endloop
  endfacet
  facet normal 0.433013 -0.25 -0.866025
    outer loop
      vertex 51.0311 7.6782 -1
      vertex 47.0311 7.6782 -3
      vertex 49.0311 11.1423 -3
    endloop
  endfacet
  facet normal -0.433013 0.25 -0.866025
    outer loop
      vertex 41.0311 11.1423 -3
      vertex 39.0311 14.6064 -1
      vertex 43.0311 14.6064 -3
    endloop
  endfacet
  facet normal 0.433013 0.25 -0.866025
    outer loop
      vertex 49.0311 11.1423 -3
      vertex 47.0311 14.6064 -3
      vertex 51.0311 14.6064 -1
    endloop
  endfacet
  facet normal 0.707107 0 -0.707107
    outer loop
      vertex 51.0311 7.6782 -1
      vertex 49.0311 11.1423 -3
      vertex 51.0311 14.6064 -1
    endloop
  endfacet
  facet normal 0.433013 -0.25 0.866025
    outer loop
      vertex 49.0311 11.1423 3
      vertex 47.0311 7.6782 3
      vertex 51.0311 7.6782 1
    endloop
  endfacet
  facet normal 0.353553 -0.612373 0.707107
    outer loop
      vertex 47.0311 7.6782 3
      vertex 45.0311 4.2141 1
      vertex 51.0311 7.6782 1
    endloop
  endfacet
  facet normal -0.353553 -0.612373 0.707107
    outer loop
      vertex 43.0311 7.6782 3
      vertex 39.0311 7.6782 1
      vertex 45.0311 4.2141 1
    endloop
  endfacet
  facet normal -0.353553 0.612373 -0.707107
    outer loop
      vertex 43.0311 14.6064 -3
      vertex 39.0311 14.6064 -1
      vertex 45.0311 18.0705 -1
    endloop
  endfacet
  facet normal 0 0.5 -0.866025
    outer loop
      vertex 47.0311 14.6064 -3
      vertex 43.0311 14.6064 -3
      vertex 45.0311 18.0705 -1
    endloop
  endfacet
  facet normal 0 0 -1
    outer loop
      vertex 47.0311 7.6782 -3
      vertex 47.0311 14.6064 -3
      vertex 49.0311 11.1423 -3
    endloop
  endfacet
  facet normal 0 0 -1
    outer loop
      vertex 43.0311 7.6782 -3
      vertex 47.0311 14.6064 -3
      vertex 47.0311 7.6782 -3
    endloop
  endfacet
  facet normal 0 0 -1
    outer loop
      vertex 43.0311 7.6782 -3
      vertex 43.0311 14.6064 -3
      vertex 47.0311 14.6064 -3
    endloop
  endfacet
  facet normal 0 -0 -1
    outer loop
      vertex 43.0311 14.6064 -3
      vertex 43.0311 7.6782 -3
      vertex 41.0311 11.1423 -3
    endloop
  endfacet
  facet normal 0.707107 0 0.707107
    outer loop
      vertex 51.0311 14.6064 1
      vertex 49.0311 11.1423 3
      vertex 51.0311 7.6782 1
    endloop
  endfacet
  facet normal -0.433013 -0.25 -0.866025
    outer loop
      vertex 43.0311 7.6782 -3
      vertex 39.0311 7.6782 -1
      vertex 41.0311 11.1423 -3
    endloop
  endfacet
  facet normal -0.353553 -0.612373 -0.707107
    outer loop
      vertex 45.0311 4.2141 -1
      vertex 39.0311 7.6782 -1
      vertex 43.0311 7.6782 -3
    endloop
  endfacet
  facet normal 0 -0.5 0.866025
    outer loop
      vertex 27.732 -3.4641 3
      vertex 23.732 -3.4641 3
      vertex 25.732 -6.9282 1
    endloop
  endfacet
  facet normal -0.35356 0.612374 0.707102
    outer loop
      vertex 25.732 6.9282 1
      vertex 19.7321 3.4641 1
      vertex 23.732 3.4641 3
    endloop
  endfacet
  facet normal 0.353553 0.612373 0.707107
    outer loop
      vertex 28.732 5.19615 1
      vertex 27.732 3.4641 3
      vertex 31.732 3.4641 1
    endloop
  endfacet
  facet normal 0.353562 0.612368 0.707107
    outer loop
      vertex 25.7321 6.9282 1
      vertex 27.732 3.4641 3
      vertex 28.732 5.19615 1
    endloop
  endfacet
  facet normal 0 0.5 0.866025
    outer loop
      vertex 27.732 3.4641 3
      vertex 25.7321 6.9282 1
      vertex 25.732 6.9282 1
    endloop
  endfacet
  facet normal 0 0 1
    outer loop
      vertex 27.732 3.4641 3
      vertex 27.732 -3.4641 3
      vertex 29.732 0 3
    endloop
  endfacet
  facet normal -0 0 1
    outer loop
      vertex 23.732 3.4641 3
      vertex 27.732 -3.4641 3
      vertex 27.732 3.4641 3
    endloop
  endfacet
  facet normal 0 0 1
    outer loop
      vertex 23.732 3.4641 3
      vertex 23.732 -3.4641 3
      vertex 27.732 -3.4641 3
    endloop
  endfacet
  facet normal 0 -0 1
    outer loop
      vertex 23.732 -3.4641 3
      vertex 23.732 3.4641 3
      vertex 21.732 0 3
    endloop
  endfacet
  facet normal -0.500006 -0.866022 0
    outer loop
      vertex 19.7321 -3.4641 -1
      vertex 25.732 -6.9282 1
      vertex 19.7321 -3.4641 1
    endloop
  endfacet
  facet normal -0.500006 -0.866022 -0
    outer loop
      vertex 25.732 -6.9282 1
      vertex 19.7321 -3.4641 -1
      vertex 25.732 -6.9282 -1
    endloop
  endfacet
  facet normal 0.433013 0.25 0.866025
    outer loop
      vertex 31.732 3.4641 1
      vertex 27.732 3.4641 3
      vertex 29.732 0 3
    endloop
  endfacet
  facet normal 0.353553 0.612373 -0.707107
    outer loop
      vertex 27.732 3.4641 -3
      vertex 28.732 5.19615 -1
      vertex 31.732 3.4641 -1
    endloop
  endfacet
  facet normal 0.353562 0.612368 -0.707107
    outer loop
      vertex 27.732 3.4641 -3
      vertex 25.7321 6.9282 -1
      vertex 28.732 5.19615 -1
    endloop
  endfacet
  facet normal 0 0.5 -0.866025
    outer loop
      vertex 25.7321 6.9282 -1
      vertex 27.732 3.4641 -3
      vertex 25.732 6.9282 -1
    endloop
  endfacet
  facet normal 0.353553 -0.612373 -0.707107
    outer loop
      vertex 31.732 -3.4641 -1
      vertex 25.732 -6.9282 -1
      vertex 27.732 -3.4641 -3
    endloop
  endfacet
  facet normal 0 0.5 0.866025
    outer loop
      vertex 25.732 6.9282 1
      vertex 23.732 3.4641 3
      vertex 27.732 3.4641 3
    endloop
  endfacet
  facet normal -0.707124 0 0.707089
    outer loop
      vertex 19.7321 3.4641 1
      vertex 19.7321 -3.4641 1
      vertex 21.732 0 3
    endloop
  endfacet
  facet normal -0.35356 -0.612374 0.707102
    outer loop
      vertex 23.732 -3.4641 3
      vertex 19.7321 -3.4641 1
      vertex 25.732 -6.9282 1
    endloop
  endfacet
  facet normal -0.500006 0.866022 0
    outer loop
      vertex 25.732 6.9282 -1
      vertex 19.7321 3.4641 1
      vertex 25.732 6.9282 1
    endloop
  endfacet
  facet normal -0.500006 0.866022 0
    outer loop
      vertex 19.7321 3.4641 1
      vertex 25.732 6.9282 -1
      vertex 19.7321 3.4641 -1
    endloop
  endfacet
  facet normal 0.353553 -0.612373 0.707107
    outer loop
      vertex 27.732 -3.4641 3
      vertex 25.732 -6.9282 1
      vertex 31.732 -3.4641 1
    endloop
  endfacet
  facet normal 0 1 -0
    outer loop
      vertex 25.7321 6.9282 -1
      vertex 25.732 6.9282 1
      vertex 25.7321 6.9282 1
    endloop
  endfacet
  facet normal 0 1 0
    outer loop
      vertex 25.732 6.9282 1
      vertex 25.7321 6.9282 -1
      vertex 25.732 6.9282 -1
    endloop
  endfacet
  facet normal 0.5 0.866026 -0
    outer loop
      vertex 31.732 3.4641 -1
      vertex 28.732 5.19615 1
      vertex 31.732 3.4641 1
    endloop
  endfacet
  facet normal 0.5 0.866026 0
    outer loop
      vertex 28.732 5.19615 1
      vertex 31.732 3.4641 -1
      vertex 28.732 5.19615 -1
    endloop
  endfacet
  facet normal 0.433013 -0.25 0.866025
    outer loop
      vertex 29.732 0 3
      vertex 27.732 -3.4641 3
      vertex 31.732 -3.4641 1
    endloop
  endfacet
  facet normal -0.433021 0.250005 0.86602
    outer loop
      vertex 23.732 3.4641 3
      vertex 19.7321 3.4641 1
      vertex 21.732 0 3
    endloop
  endfacet
  facet normal -0.35356 -0.612374 -0.707102
    outer loop
      vertex 25.732 -6.9282 -1
      vertex 19.7321 -3.4641 -1
      vertex 23.732 -3.4641 -3
    endloop
  endfacet
  facet normal -0.433021 0.250005 -0.86602
    outer loop
      vertex 21.732 0 -3
      vertex 19.7321 3.4641 -1
      vertex 23.732 3.4641 -3
    endloop
  endfacet
  facet normal 0 -0.5 -0.866025
    outer loop
      vertex 25.732 -6.9282 -1
      vertex 23.732 -3.4641 -3
      vertex 27.732 -3.4641 -3
    endloop
  endfacet
  facet normal -0.35356 0.612374 -0.707102
    outer loop
      vertex 23.732 3.4641 -3
      vertex 19.7321 3.4641 -1
      vertex 25.732 6.9282 -1
    endloop
  endfacet
  facet normal 0 0 -1
    outer loop
      vertex 27.732 -3.4641 -3
      vertex 27.732 3.4641 -3
      vertex 29.732 0 -3
    endloop
  endfacet
  facet normal 0 0 -1
    outer loop
      vertex 23.732 -3.4641 -3
      vertex 27.732 3.4641 -3
      vertex 27.732 -3.4641 -3
    endloop
  endfacet
  facet normal 0 0 -1
    outer loop
      vertex 23.732 -3.4641 -3
      vertex 23.732 3.4641 -3
      vertex 27.732 3.4641 -3
    endloop
  endfacet
  facet normal 0 -0 -1
    outer loop
      vertex 23.732 3.4641 -3
      vertex 23.732 -3.4641 -3
      vertex 21.732 0 -3
    endloop
  endfacet
  facet normal 0.707107 0 0.707107
    outer loop
      vertex 31.732 3.4641 1
      vertex 29.732 0 3
      vertex 31.732 -3.4641 1
    endloop
  endfacet
  facet normal -0.707124 0 -0.707089
    outer loop
      vertex 21.732 0 -3
      vertex 19.7321 -3.4641 -1
      vertex 19.7321 3.4641 -1
    endloop
  endfacet
  facet normal -0.433021 -0.250005 -0.86602
    outer loop
      vertex 23.732 -3.4641 -3
      vertex 19.7321 -3.4641 -1
      vertex 21.732 0 -3
    endloop
  endfacet
  facet normal 0 0.5 -0.866025
    outer loop
      vertex 27.732 3.4641 -3
      vertex 23.732 3.4641 -3
      vertex 25.732 6.9282 -1
    endloop
  endfacet
  facet normal 0.433013 0.25 -0.866025
    outer loop
      vertex 29.732 0 -3
      vertex 27.732 3.4641 -3
      vertex 31.732 3.4641 -1
    endloop
  endfacet
  facet normal 0.707107 0 -0.707107
    outer loop
      vertex 31.732 -3.4641 -1
      vertex 29.732 0 -3
      vertex 31.732 3.4641 -1
    endloop
  endfacet
  facet normal 0.433013 -0.25 -0.866025
    outer loop
      vertex 31.732 -3.4641 -1
      vertex 27.732 -3.4641 -3
      vertex 29.732 0 -3
    endloop
  endfacet
  facet normal 0.5 -0.866026 0
    outer loop
      vertex 25.732 -6.9282 -1
      vertex 31.732 -3.4641 1
      vertex 25.732 -6.9282 1
    endloop
  endfacet
  facet normal 0.5 -0.866026 0
    outer loop
      vertex 31.732 -3.4641 1
      vertex 25.732 -6.9282 -1
      vertex 31.732 -3.4641 -1
    endloop
  endfacet
  facet normal 1 -0 0
    outer loop
      vertex 31.732 -3.4641 1
      vertex 31.732 3.4641 -1
      vertex 31.732 3.4641 1
    endloop
  endfacet
  facet normal 1 0 0
    outer loop
      vertex 31.732 3.4641 -1
      vertex 31.732 -3.4641 1
      vertex 31.732 -3.4641 -1
    endloop
  endfacet
  facet normal -1 0 0
    outer loop
      vertex 19.7321 -3.4641 -1
      vertex 19.7321 3.4641 1
      vertex 19.7321 3.4641 -1
    endloop
  endfacet
  facet normal -1 -0 0
    outer loop
      vertex 19.7321 3.4641 1
      vertex 19.7321 -3.4641 -1
      vertex 19.7321 -3.4641 1
    endloop
  endfacet
  facet normal -0.433021 -0.250005 0.86602
    outer loop
      vertex 21.732 0 3
      vertex 19.7321 -3.4641 1
      vertex 23.732 -3.4641 3
    endloop
  endfacet
  facet normal -0.5 -0.866026 0
    outer loop
      vertex 28.732 5.19615 -1
      vertex 31.732 3.4641 1
      vertex 28.732 5.19615 1
    endloop
  endfacet
  facet normal -0.5 -0.866026 -0
    outer loop
      vertex 31.732 3.4641 1
      vertex 28.732 5.19615 -1
      vertex 31.732 3.4641 -1
    endloop
  endfacet
  facet normal 0.5 0.866026 -0
    outer loop
      vertex 32.1651 4.2141 -1
      vertex 26.1651 7.6782 1
      vertex 32.1651 4.2141 1
    endloop
  endfacet
  facet normal 0.5 0.866026 0
    outer loop
      vertex 26.1651 7.6782 1
      vertex 32.1651 4.2141 -1
      vertex 26.1651 7.6782 -1
    endloop
  endfacet
  facet normal 0.865982 -0.500076 0
    outer loop
      vertex 31.732 3.4641 1
      vertex 32.1651 4.2141 -1
      vertex 32.1651 4.2141 1
    endloop
  endfacet
  facet normal 0.865982 -0.500076 0
    outer loop
      vertex 32.1651 4.2141 -1
      vertex 31.732 3.4641 1
      vertex 31.732 3.4641 -1
    endloop
  endfacet
  facet normal 0 0 -1
    outer loop
      vertex 28.732 5.19615 -1
      vertex 32.1651 4.2141 -1
      vertex 31.732 3.4641 -1
    endloop
  endfacet
  facet normal 0 0 -1
    outer loop
      vertex 28.732 5.19615 -1
      vertex 26.1651 7.6782 -1
      vertex 32.1651 4.2141 -1
    endloop
  endfacet
  facet normal 0 -0 -1
    outer loop
      vertex 26.1651 7.6782 -1
      vertex 28.732 5.19615 -1
      vertex 25.7321 6.9282 -1
    endloop
  endfacet
  facet normal -0.866032 0.499989 0
    outer loop
      vertex 25.7321 6.9282 -1
      vertex 26.1651 7.6782 1
      vertex 26.1651 7.6782 -1
    endloop
  endfacet
  facet normal -0.866032 0.499989 0
    outer loop
      vertex 26.1651 7.6782 1
      vertex 25.7321 6.9282 -1
      vertex 25.7321 6.9282 1
    endloop
  endfacet
  facet normal 0 0 1
    outer loop
      vertex 32.1651 4.2141 1
      vertex 28.732 5.19615 1
      vertex 31.732 3.4641 1
    endloop
  endfacet
  facet normal 0 0 1
    outer loop
      vertex 26.1651 7.6782 1
      vertex 28.732 5.19615 1
      vertex 32.1651 4.2141 1
    endloop
  endfacet
  facet normal 0 0 1
    outer loop
      vertex 28.732 5.19615 1
      vertex 26.1651 7.6782 1
      vertex 25.7321 6.9282 1
    endloop
  endfacet
  facet normal 0 -0.5 0.866025
    outer loop
      vertex 14.866 -3.4641 3
      vertex 10.866 -3.4641 3
      vertex 12.866 -6.9282 1
    endloop
  endfacet
  facet normal -0.353555 0.612373 0.707105
    outer loop
      vertex 12.866 6.9282 1
      vertex 6.86603 3.4641 1
      vertex 10.866 3.4641 3
    endloop
  endfacet
  facet normal 0.353553 0.612373 0.707107
    outer loop
      vertex 18.866 3.4641 1
      vertex 12.866 6.9282 1
      vertex 14.866 3.4641 3
    endloop
  endfacet
  facet normal 0 0 1
    outer loop
      vertex 14.866 3.4641 3
      vertex 14.866 -3.4641 3
      vertex 16.866 0 3
    endloop
  endfacet
  facet normal -0 0 1
    outer loop
      vertex 10.866 3.4641 3
      vertex 14.866 -3.4641 3
      vertex 14.866 3.4641 3
    endloop
  endfacet
  facet normal 0 0 1
    outer loop
      vertex 10.866 3.4641 3
      vertex 10.866 -3.4641 3
      vertex 14.866 -3.4641 3
    endloop
  endfacet
  facet normal 0 -0 1
    outer loop
      vertex 10.866 -3.4641 3
      vertex 10.866 3.4641 3
      vertex 8.86602 0 3
    endloop
  endfacet
  facet normal -0.500002 -0.866024 0
    outer loop
      vertex 6.86603 -3.4641 -1
      vertex 12.866 -6.9282 1
      vertex 6.86603 -3.4641 1
    endloop
  endfacet
  facet normal -0.500002 -0.866024 -0
    outer loop
      vertex 12.866 -6.9282 1
      vertex 6.86603 -3.4641 -1
      vertex 12.866 -6.9282 -1
    endloop
  endfacet
  facet normal 0.433013 0.25 0.866025
    outer loop
      vertex 18.866 3.4641 1
      vertex 14.866 3.4641 3
      vertex 16.866 0 3
    endloop
  endfacet
  facet normal 0.353553 0.612373 -0.707107
    outer loop
      vertex 14.866 3.4641 -3
      vertex 12.866 6.9282 -1
      vertex 18.866 3.4641 -1
    endloop
  endfacet
  facet normal 0.353553 -0.612373 -0.707107
    outer loop
      vertex 18.866 -3.4641 -1
      vertex 12.866 -6.9282 -1
      vertex 14.866 -3.4641 -3
    endloop
  endfacet
  facet normal 0 0.5 0.866025
    outer loop
      vertex 12.866 6.9282 1
      vertex 10.866 3.4641 3
      vertex 14.866 3.4641 3
    endloop
  endfacet
  facet normal -0.707109 0 0.707105
    outer loop
      vertex 6.86603 3.4641 1
      vertex 6.86603 -3.4641 1
      vertex 8.86602 0 3
    endloop
  endfacet
  facet normal -0.353555 -0.612373 0.707105
    outer loop
      vertex 10.866 -3.4641 3
      vertex 6.86603 -3.4641 1
      vertex 12.866 -6.9282 1
    endloop
  endfacet
  facet normal -0.500002 0.866024 0
    outer loop
      vertex 12.866 6.9282 -1
      vertex 6.86603 3.4641 1
      vertex 12.866 6.9282 1
    endloop
  endfacet
  facet normal -0.500002 0.866024 0
    outer loop
      vertex 6.86603 3.4641 1
      vertex 12.866 6.9282 -1
      vertex 6.86603 3.4641 -1
    endloop
  endfacet
  facet normal 0.353553 -0.612373 0.707107
    outer loop
      vertex 14.866 -3.4641 3
      vertex 12.866 -6.9282 1
      vertex 18.866 -3.4641 1
    endloop
  endfacet
  facet normal 0.5 0.866026 -0
    outer loop
      vertex 18.866 3.4641 -1
      vertex 12.866 6.9282 1
      vertex 18.866 3.4641 1
    endloop
  endfacet
  facet normal 0.5 0.866026 0
    outer loop
      vertex 12.866 6.9282 1
      vertex 18.866 3.4641 -1
      vertex 12.866 6.9282 -1
    endloop
  endfacet
  facet normal 0.433013 -0.25 0.866025
    outer loop
      vertex 16.866 0 3
      vertex 14.866 -3.4641 3
      vertex 18.866 -3.4641 1
    endloop
  endfacet
  facet normal -0.433015 0.249999 0.866024
    outer loop
      vertex 10.866 3.4641 3
      vertex 6.86603 3.4641 1
      vertex 8.86602 0 3
    endloop
  endfacet
  facet normal -0.353555 -0.612373 -0.707105
    outer loop
      vertex 12.866 -6.9282 -1
      vertex 6.86603 -3.4641 -1
      vertex 10.866 -3.4641 -3
    endloop
  endfacet
  facet normal -0.433015 0.249999 -0.866024
    outer loop
      vertex 8.86602 0 -3
      vertex 6.86603 3.4641 -1
      vertex 10.866 3.4641 -3
    endloop
  endfacet
  facet normal 0 -0.5 -0.866025
    outer loop
      vertex 12.866 -6.9282 -1
      vertex 10.866 -3.4641 -3
      vertex 14.866 -3.4641 -3
    endloop
  endfacet
  facet normal -0.353555 0.612373 -0.707105
    outer loop
      vertex 10.866 3.4641 -3
      vertex 6.86603 3.4641 -1
      vertex 12.866 6.9282 -1
    endloop
  endfacet
  facet normal 0 0 -1
    outer loop
      vertex 14.866 -3.4641 -3
      vertex 14.866 3.4641 -3
      vertex 16.866 0 -3
    endloop
  endfacet
  facet normal 0 0 -1
    outer loop
      vertex 10.866 -3.4641 -3
      vertex 14.866 3.4641 -3
      vertex 14.866 -3.4641 -3
    endloop
  endfacet
  facet normal 0 0 -1
    outer loop
      vertex 10.866 -3.4641 -3
      vertex 10.866 3.4641 -3
      vertex 14.866 3.4641 -3
    endloop
  endfacet
  facet normal 0 -0 -1
    outer loop
      vertex 10.866 3.4641 -3
      vertex 10.866 -3.4641 -3
      vertex 8.86602 0 -3
    endloop
  endfacet
  facet normal 0.707107 0 0.707107
    outer loop
      vertex 16.866 0 3
      vertex 18.866 -3.4641 1
      vertex 18.866 3.4641 1
    endloop
  endfacet
  facet normal -0.707109 0 -0.707105
    outer loop
      vertex 8.86602 0 -3
      vertex 6.86603 -3.4641 -1
      vertex 6.86603 3.4641 -1
    endloop
  endfacet
  facet normal -0.433015 -0.249999 -0.866024
    outer loop
      vertex 10.866 -3.4641 -3
      vertex 6.86603 -3.4641 -1
      vertex 8.86602 0 -3
    endloop
  endfacet
  facet normal 0 0.5 -0.866025
    outer loop
      vertex 14.866 3.4641 -3
      vertex 10.866 3.4641 -3
      vertex 12.866 6.9282 -1
    endloop
  endfacet
  facet normal 0.433013 0.25 -0.866025
    outer loop
      vertex 16.866 0 -3
      vertex 14.866 3.4641 -3
      vertex 18.866 3.4641 -1
    endloop
  endfacet
  facet normal 0.707107 0 -0.707107
    outer loop
      vertex 18.866 -3.4641 -1
      vertex 16.866 0 -3
      vertex 18.866 3.4641 -1
    endloop
  endfacet
  facet normal 0.433013 -0.25 -0.866025
    outer loop
      vertex 18.866 -3.4641 -1
      vertex 14.866 -3.4641 -3
      vertex 16.866 0 -3
    endloop
  endfacet
  facet normal 0.5 -0.866026 0
    outer loop
      vertex 12.866 -6.9282 -1
      vertex 18.866 -3.4641 1
      vertex 12.866 -6.9282 1
    endloop
  endfacet
  facet normal 0.5 -0.866026 0
    outer loop
      vertex 18.866 -3.4641 1
      vertex 12.866 -6.9282 -1
      vertex 18.866 -3.4641 -1
    endloop
  endfacet
  facet normal -1 0 0
    outer loop
      vertex 6.86603 -3.4641 -1
      vertex 6.86603 3.4641 1
      vertex 6.86603 3.4641 -1
    endloop
  endfacet
  facet normal -1 -0 0
    outer loop
      vertex 6.86603 3.4641 1
      vertex 6.86603 -3.4641 -1
      vertex 6.86603 -3.4641 1
    endloop
  endfacet
  facet normal -0.433015 -0.249999 0.866024
    outer loop
      vertex 8.86602 0 3
      vertex 6.86603 -3.4641 1
      vertex 10.866 -3.4641 3
    endloop
  endfacet
  facet normal 0 1 -0
    outer loop
      vertex 19.732 3.4641 -1
      vertex 18.866 3.4641 1
      vertex 19.732 3.4641 1
    endloop
  endfacet
  facet normal 0 1 0
    outer loop
      vertex 18.866 3.4641 1
      vertex 19.732 3.4641 -1
      vertex 18.866 3.4641 -1
    endloop
  endfacet
  facet normal 0 0 -1
    outer loop
      vertex 18.866 -3.4641 -1
      vertex 19.732 3.4641 -1
      vertex 19.732 -3.4641 -1
    endloop
  endfacet
  facet normal -0 0 -1
    outer loop
      vertex 19.732 3.4641 -1
      vertex 18.866 -3.4641 -1
      vertex 18.866 3.4641 -1
    endloop
  endfacet
  facet normal 1 -0 0
    outer loop
      vertex 19.732 -3.4641 1
      vertex 19.732 3.4641 -1
      vertex 19.732 3.4641 1
    endloop
  endfacet
  facet normal 1 0 0
    outer loop
      vertex 19.732 3.4641 -1
      vertex 19.732 -3.4641 1
      vertex 19.732 -3.4641 -1
    endloop
  endfacet
  facet normal 0 -1 0
    outer loop
      vertex 18.866 -3.4641 -1
      vertex 19.732 -3.4641 1
      vertex 18.866 -3.4641 1
    endloop
  endfacet
  facet normal 0 -1 -0
    outer loop
      vertex 19.732 -3.4641 1
      vertex 18.866 -3.4641 -1
      vertex 19.732 -3.4641 -1
    endloop
  endfacet
  facet normal -0 0 1
    outer loop
      vertex 18.866 3.4641 1
      vertex 19.732 -3.4641 1
      vertex 19.732 3.4641 1
    endloop
  endfacet
  facet normal 0 0 1
    outer loop
      vertex 19.732 -3.4641 1
      vertex 18.866 3.4641 1
      vertex 18.866 -3.4641 1
    endloop
  endfacet
  facet normal 0 -0.5 0.866025
    outer loop
      vertex 2 -3.4641 3
      vertex -2 -3.4641 3
      vertex 0 -6.9282 1
    endloop
  endfacet
  facet normal -0.353553 0.612373 0.707107
    outer loop
      vertex 0 6.9282 1
      vertex -6 3.4641 1
      vertex -2 3.4641 3
    endloop
  endfacet
  facet normal 0.353553 0.612373 0.707107
    outer loop
      vertex 6 3.4641 1
      vertex 0 6.9282 1
      vertex 2 3.4641 3
    endloop
  endfacet
  facet normal 0 0 1
    outer loop
      vertex 2 3.4641 3
      vertex 2 -3.4641 3
      vertex 4 0 3
    endloop
  endfacet
  facet normal -0 0 1
    outer loop
      vertex -2 3.4641 3
      vertex 2 -3.4641 3
      vertex 2 3.4641 3
    endloop
  endfacet
  facet normal 0 0 1
    outer loop
      vertex -2 3.4641 3
      vertex -2 -3.4641 3
      vertex 2 -3.4641 3
    endloop
  endfacet
  facet normal 0 -0 1
    outer loop
      vertex -2 -3.4641 3
      vertex -2 3.4641 3
      vertex -4 0 3
    endloop
  endfacet
  facet normal -0.5 -0.866026 0
    outer loop
      vertex -6 -3.4641 -1
      vertex 0 -6.9282 1
      vertex -6 -3.4641 1
    endloop
  endfacet
  facet normal -0.5 -0.866026 -0
    outer loop
      vertex 0 -6.9282 1
      vertex -6 -3.4641 -1
      vertex 0 -6.9282 -1
    endloop
  endfacet
  facet normal 0.433013 0.25 0.866025
    outer loop
      vertex 6 3.4641 1
      vertex 2 3.4641 3
      vertex 4 0 3
    endloop
  endfacet
  facet normal 0.353553 0.612373 -0.707107
    outer loop
      vertex 2 3.4641 -3
      vertex 0 6.9282 -1
      vertex 6 3.4641 -1
    endloop
  endfacet
  facet normal 0.353553 -0.612373 -0.707107
    outer loop
      vertex 6 -3.4641 -1
      vertex 0 -6.9282 -1
      vertex 2 -3.4641 -3
    endloop
  endfacet
  facet normal 0 0.5 0.866025
    outer loop
      vertex 0 6.9282 1
      vertex -2 3.4641 3
      vertex 2 3.4641 3
    endloop
  endfacet
  facet normal -0.707107 0 0.707107
    outer loop
      vertex -6 3.4641 1
      vertex -6 -3.4641 1
      vertex -4 0 3
    endloop
  endfacet
  facet normal -0.353553 -0.612373 0.707107
    outer loop
      vertex -2 -3.4641 3
      vertex -6 -3.4641 1
      vertex 0 -6.9282 1
    endloop
  endfacet
  facet normal -0.5 0.866026 0
    outer loop
      vertex 0 6.9282 -1
      vertex -6 3.4641 1
      vertex 0 6.9282 1
    endloop
  endfacet
  facet normal -0.5 0.866026 0
    outer loop
      vertex -6 3.4641 1
      vertex 0 6.9282 -1
      vertex -6 3.4641 -1
    endloop
  endfacet
  facet normal 0.353553 -0.612373 0.707107
    outer loop
      vertex 2 -3.4641 3
      vertex 0 -6.9282 1
      vertex 6 -3.4641 1
    endloop
  endfacet
  facet normal 0.5 0.866026 -0
    outer loop
      vertex 6 3.4641 -1
      vertex 0 6.9282 1
      vertex 6 3.4641 1
    endloop
  endfacet
  facet normal 0.5 0.866026 0
    outer loop
      vertex 0 6.9282 1
      vertex 6 3.4641 -1
      vertex 0 6.9282 -1
    endloop
  endfacet
  facet normal 0.433013 -0.25 0.866025
    outer loop
      vertex 4 0 3
      vertex 2 -3.4641 3
      vertex 6 -3.4641 1
    endloop
  endfacet
  facet normal -0.433013 0.25 0.866025
    outer loop
      vertex -2 3.4641 3
      vertex -6 3.4641 1
      vertex -4 0 3
    endloop
  endfacet
  facet normal -0.353553 -0.612373 -0.707107
    outer loop
      vertex 0 -6.9282 -1
      vertex -6 -3.4641 -1
      vertex -2 -3.4641 -3
    endloop
  endfacet
  facet normal -0.433013 0.25 -0.866025
    outer loop
      vertex -4 0 -3
      vertex -6 3.4641 -1
      vertex -2 3.4641 -3
    endloop
  endfacet
  facet normal 0 -0.5 -0.866025
    outer loop
      vertex 0 -6.9282 -1
      vertex -2 -3.4641 -3
      vertex 2 -3.4641 -3
    endloop
  endfacet
  facet normal -0.353553 0.612373 -0.707107
    outer loop
      vertex -2 3.4641 -3
      vertex -6 3.4641 -1
      vertex 0 6.9282 -1
    endloop
  endfacet
  facet normal 0 0 -1
    outer loop
      vertex 2 -3.4641 -3
      vertex 2 3.4641 -3
      vertex 4 0 -3
    endloop
  endfacet
  facet normal 0 0 -1
    outer loop
      vertex -2 -3.4641 -3
      vertex 2 3.4641 -3
      vertex 2 -3.4641 -3
    endloop
  endfacet
  facet normal 0 0 -1
    outer loop
      vertex -2 -3.4641 -3
      vertex -2 3.4641 -3
      vertex 2 3.4641 -3
    endloop
  endfacet
  facet normal 0 -0 -1
    outer loop
      vertex -2 3.4641 -3
      vertex -2 -3.4641 -3
      vertex -4 0 -3
    endloop
  endfacet
  facet normal 0.707107 0 0.707107
    outer loop
      vertex 4 0 3
      vertex 6 -3.4641 1
      vertex 6 3.4641 1
    endloop
  endfacet
  facet normal -0.707107 0 -0.707107
    outer loop
      vertex -4 0 -3
      vertex -6 -3.4641 -1
      vertex -6 3.4641 -1
    endloop
  endfacet
  facet normal -0.433013 -0.25 -0.866025
    outer loop
      vertex -2 -3.4641 -3
      vertex -6 -3.4641 -1
      vertex -4 0 -3
    endloop
  endfacet
  facet normal 0 0.5 -0.866025
    outer loop
      vertex 2 3.4641 -3
      vertex -2 3.4641 -3
      vertex 0 6.9282 -1
    endloop
  endfacet
  facet normal 0.433013 0.25 -0.866025
    outer loop
      vertex 4 0 -3
      vertex 2 3.4641 -3
      vertex 6 3.4641 -1
    endloop
  endfacet
  facet normal 0.707107 0 -0.707107
    outer loop
      vertex 6 -3.4641 -1
      vertex 4 0 -3
      vertex 6 3.4641 -1
    endloop
  endfacet
  facet normal 0.433013 -0.25 -0.866025
    outer loop
      vertex 6 -3.4641 -1
      vertex 2 -3.4641 -3
      vertex 4 0 -3
    endloop
  endfacet
  facet normal 0.5 -0.866026 0
    outer loop
      vertex 0 -6.9282 -1
      vertex 6 -3.4641 1
      vertex 0 -6.9282 1
    endloop
  endfacet
  facet normal 0.5 -0.866026 0
    outer loop
      vertex 6 -3.4641 1
      vertex 0 -6.9282 -1
      vertex 6 -3.4641 -1
    endloop
  endfacet
  facet normal -1 0 0
    outer loop
      vertex -6 -3.4641 -1
      vertex -6 3.4641 1
      vertex -6 3.4641 -1
    endloop
  endfacet
  facet normal -1 -0 0
    outer loop
      vertex -6 3.4641 1
      vertex -6 -3.4641 -1
      vertex -6 -3.4641 1
    endloop
  endfacet
  facet normal -0.433013 -0.25 0.866025
    outer loop
      vertex -4 0 3
      vertex -6 -3.4641 1
      vertex -2 -3.4641 3
    endloop
  endfacet
  facet normal 0 1 -0
    outer loop
      vertex 6.86602 3.4641 -1
      vertex 6 3.4641 1
      vertex 6.86602 3.4641 1
    endloop
  endfacet
  facet normal 0 1 0
    outer loop
      vertex 6 3.4641 1
      vertex 6.86602 3.4641 -1
      vertex 6 3.4641 -1
    endloop
  endfacet
  facet normal 0 0 -1
    outer loop
      vertex 6 -3.4641 -1
      vertex 6.86602 3.4641 -1
      vertex 6.86602 -3.4641 -1
    endloop
  endfacet
  facet normal -0 0 -1
    outer loop
      vertex 6.86602 3.4641 -1
      vertex 6 -3.4641 -1
      vertex 6 3.4641 -1
    endloop
  endfacet
  facet normal 1 -0 0
    outer loop
      vertex 6.86602 -3.4641 1
      vertex 6.86602 3.4641 -1
      vertex 6.86602 3.4641 1
    endloop
  endfacet
  facet normal 1 0 0
    outer loop
      vertex 6.86602 3.4641 -1
      vertex 6.86602 -3.4641 1
      vertex 6.86602 -3.4641 -1
    endloop
  endfacet
  facet normal 0 -1 0
    outer loop
      vertex 6 -3.4641 -1
      vertex 6.86602 -3.4641 1
      vertex 6 -3.4641 1
    endloop
  endfacet
  facet normal 0 -1 -0
    outer loop
      vertex 6.86602 -3.4641 1
      vertex 6 -3.4641 -1
      vertex 6.86602 -3.4641 -1
    endloop
  endfacet
  facet normal -0 0 1
    outer loop
      vertex 6 3.4641 1
      vertex 6.86602 -3.4641 1
      vertex 6.86602 3.4641 1
    endloop
  endfacet
  facet normal 0 0 1
    outer loop
      vertex 6.86602 -3.4641 1
      vertex 6 3.4641 1
      vertex 6 -3.4641 1
    endloop
  endfacet
endsolid OpenSCAD_Model
